<svg xmlns:svg="http://www.w3.org/2000/svg" xmlns="http://www.w3.org/2000/svg" version="1.1" width="1100" height="872.2"><path d="m405.5 622.1c-3.3-0.1-8.8-0.2-12.1-0.1-3.3 0-8.6 0-11.8-0.1-3.2-0.1-8.2-0.1-11.2-0.2-9.7-0.2-20-0.9-21.1-1.6-1.3-0.7 4.2-0.8 13.6-0.1 3.5 0.2 13.9-0.1 28.3-0.9 22.1-1.2 22.8-1.2 22.9-0.1 0 0.6 0.4 1.1 0.9 1.1 0.5 0 0.9 0.3 0.9 0.8 0 1.1-2.9 1.4-10.3 1.2zm49.8-5.7c-1.1-1.2 0.2-1.6 1.4-0.4 0.9 0.9 0.9 1.1 0.2 1.1-0.5 0-1.2-0.3-1.6-0.7zm62.2-3.6c-1.1-0.3-1.1-0.4 0-1 0.6-0.4 2.3-0.9 3.7-1.1 2.9-0.5 8.2-2.2 10-3.2 0.8-0.4 1.5-0.4 2.3 0 0.6 0.4 0.7 0.5 0.2 0.4-0.5-0.1-1.1 0.1-1.4 0.5-0.5 0.6-4.3 2-11.6 4.2-1.1 0.3-2.5 0.4-3.1 0.2zm-16 0.3c-0.2-0.2-0.4-0.6-0.4-1 0-0.4 0.3-0.3 0.7 0.1 0.4 0.4 0.6 0.8 0.4 1-0.2 0.2-0.5 0.1-0.7-0.1zm-42.4 0.8c-0.1-0.1-2.6-0.3-5.6-0.3-2.9 0-5.8-0.3-6.5-0.6-0.8-0.4-1.2-0.3-1.3 0.2-0.1 0.5-0.5 0.5-1.2-0.2-0.6-0.5-1-1-1-1.2 0-0.5 3.1-1.3 6.5-1.6 1.9-0.2 5.2-0.6 7.4-0.8 6-0.6 10.1-1.2 11.7-1.7 0.8-0.2 3.7-0.8 6.4-1.3 2.7-0.5 5-1.1 5-1.3 0-0.3-0.2-0.5-0.5-0.5-0.2 0-1.2-0.1-2.1-0.2-2.5-0.2-2.5-0.6 0.1-1.1 1.9-0.4 2.5-0.3 3.5 0.7 1 0.9 2 1.1 4.9 1 2-0.1 3.8-0.4 4-0.7 0.2-0.3 1.6-0.8 3.2-1.1 2.1-0.4 3-0.8 3.1-1.6 0.2-0.8 0.5-0.9 1.3-0.6 0.6 0.3 1.6 0.4 2.4 0.2 0.7-0.2 2.3-0.5 3.5-0.7 1.2-0.2 2.7-0.7 3.2-1 0.7-0.4 1.6-0.4 2.6-0.1 1.2 0.4 2.1 0.2 4.2-0.8 2.8-1.5 3-1.5 6.9-2.2 1.4-0.3 3.7-0.9 5-1.4 1.3-0.5 3.9-1.1 5.6-1.4 1.7-0.2 4.6-1.2 6.3-2.1 1.8-0.9 3.4-1.7 3.6-1.7 0.2 0 0.7-0.4 1-0.7 0.5-0.5 0-0.9-1.8-1.5-2.9-1-3.8-1-4.5 0-0.6 0.8-1.7 0.8-6.2 0.3-1.3-0.1-1.8-0.4-1.6-1.1 0.2-0.5 0.7-0.9 1.2-0.9 0.6-0.1 0.7-0.2 0.2-0.3-0.4-0.1-0.7-0.5-0.8-0.8 0-0.3 0.4-0.4 1-0.1 0.6 0.3 1.3 0.3 1.7 0.2 0.4-0.2 0.7 0.1 0.7 0.6 0 0.5 0.1 0.9 0.3 0.9 0.1 0 0.7 0.1 1.3 0.3 0.6 0.2 0.9 0.1 0.7-0.2-0.2-0.3-0.1-0.9 0.1-1.4 0.4-0.7 0.6-0.7 1.1-0.1 0.7 1 2.4 0.3 2.3-1 0-0.8 0.1-0.9 0.5-0.2 0.3 0.4 1.3 0.8 2.3 0.8 1 0 1.6 0.1 1.5 0.2-0.1 0.1 0.3 0.6 1 1 0.7 0.4 1.1 1 0.9 1.2-0.1 0.3 0.1 0.6 0.6 0.8 1.5 0.5 3 0.3 3.2-0.5 0.1-0.4 1.3-0.8 2.7-1 6.2-0.6 6.8-0.8 7.5-1.8 0.7-1 6.3-2.5 10.5-2.8 0.8-0.1 1.2-0.4 1-0.8-0.2-0.4-0.1-0.7 0.1-0.6 0.9 0.2 5.8-1.1 6.1-1.6 0.2-0.3 0.8-0.6 1.4-0.6 0.6 0 1.3-0.4 1.7-0.9 0.4-0.5 1.7-1.1 2.9-1.3 1.9-0.4 2.2-0.7 2.2-1.8 0-1.1-0.5-1.4-3-1.9-1.6-0.3-3.1-0.4-3.3-0.2-0.2 0.2 0 0.4 0.5 0.6 4.5 1.2 3.7 1.4-3.5 1-13.9-0.7-17.9-1.4-18-3 0-1 0.9-1 1.3-0.1 0.2 0.5 0.4 0.5 0.8-0.1 0.3-0.5 0.9-0.7 1.6-0.4 1.3 0.5 1.1 0.4 3.7 1 2.8 0.5 5.9 0.3 7.3-0.5 0.6-0.4 2.1-0.7 3.2-0.8 1.1 0 2.4-0.5 2.8-1 0.5-0.5 1.8-0.9 3.2-1 1.9-0.1 2.3-0.3 2.3-1.1-0.1-1.4-3.3-3-6-3-2.3 0-2.7 0.3-1.5 1.4 1.5 1.4 0.1 1.2-2.5-0.3-2.1-1.2-3.2-1.5-5.2-1.3-1.7 0.2-3.1-0.1-4.4-0.8-2.1-1.2-4.8-1.2-11.2-0.3-3.5 0.5-4.9 0.5-7.1-0.3-1.7-0.6-3.5-0.8-4.9-0.5-1.4 0.2-2.9 0.1-3.8-0.3-0.9-0.4-2.1-0.7-2.8-0.7-0.7 0-1.6-0.2-1.9-0.6-0.4-0.4-1.1-0.4-1.7-0.1-1.3 0.6-3.8 0.9-4.2 0.4-0.2-0.2-2.4-0.4-4.9-0.5-2.5-0.1-7.1-0.5-10.1-1.1-3-0.5-5.5-0.9-5.7-0.9-0.1 0-0.2-0.4-0.2-0.9 0-0.5-0.4-0.8-0.7-0.6-0.4 0.1-0.7 0.6-0.7 1.1 0 0.5-0.5 0.8-1.1 0.7-0.6-0.1-2.4-0.1-4-0.2-1.6 0-3.7-0.4-4.6-0.9-1-0.4-3.3-0.8-5.2-0.7-1.9 0-4.9-0.3-6.6-0.7-4.8-1.2-7.6-1.6-10-1.5-1.2 0-2.2-0.2-2.2-0.5 0-0.3 1.9-0.7 4.6-0.8 5-0.2 5.9-1 2.1-1.8-1.4-0.3-3.4-0.9-4.4-1.3-1.2-0.5-2.7-0.6-3.8-0.4-1 0.2-2.1 0.1-2.5-0.2-0.3-0.3-2.6-0.5-4.9-0.5-4.5 0.1-7-0.6-2.9-0.8 1.3-0.1 2.5-0.4 2.7-0.7 0.4-0.8-3.3-2.1-5.4-2.1-0.9 0-1.9-0.4-2.3-1-0.5-0.7-1.7-1.1-4-1.3-2-0.2-4.9-1-7.2-2.1-2.1-1-4.4-1.8-5.1-1.7-1.1 0-3.4-0.6-6.9-2-1.9-0.7-5.3-1.3-9.3-1.6-1.6-0.1-3.7-0.6-13.6-2.9-1.8-0.4-4.9-0.8-6.9-0.8-2 0-5.1-0.3-6.8-0.6-1.7-0.3-3.3-0.4-3.6-0.2-0.3 0.2-1.2 0-2.1-0.4-0.9-0.4-2.3-0.7-3.2-0.7-0.8 0.1-4.3 0.1-7.7 0.1-3.4 0-6.2 0.2-6.2 0.4 0 0.3-1 0.4-2.3 0.3-1.9-0.1-2.2 0-1.9 0.7 0.2 0.5 0.7 0.9 1.2 0.8 0.4 0 0.8 0.2 0.8 0.5 0 0.3-0.2 0.6-0.5 0.6-1.1 0-0.5 0.9 1.2 1.9 1.2 0.7 1.7 1.5 1.7 2.5 0 1.4 0.2 1.5 2.3 1.4 1.3-0.1 2.7 0.2 3.2 0.5 1.7 1.2 4.6 2.3 6.8 2.5 1.2 0.1 3.4 0.3 4.8 0.5 1.4 0.2 2.8 0.2 3.1 0.1 0.3-0.1 1.6 0.2 2.9 0.6 3.3 1 7 1.7 11.3 2 2.1 0.1 4.9 0.7 6.4 1.2 2 0.8 4 0.9 9 0.7 3.5-0.1 6.9-0.4 7.5-0.6 1.3-0.5 2.8 0.3 2.3 1.3-0.2 0.4-1 0.6-1.9 0.4l-1.5-0.3 1.5 1.1c0.8 0.6 1.3 1.2 1.1 1.5-0.2 0.2-2.8 0.6-5.7 0.8-7.5 0.6-7.4 0.5-7.3 1.6 0 0.6-0.3 0.9-1.1 0.7-0.6-0.1-2.1 0-3.3 0.3-1.5 0.4-3.1 0.4-5.1-0.1-4.7-1.1-12.4-1.7-13.1-1-0.4 0.4 0 0.7 0.9 0.9 0.8 0.2 1.5 0.6 1.5 0.9 0 0.7-0.9 0.6-6.9-0.6-7.7-1.6-15.1-2.6-15.9-2.3-1.4 0.6-0.9 1.4 1.1 2 1.1 0.3 2.3 1 2.9 1.5 0.5 0.6 2.5 1.3 4.5 1.6 3.5 0.6 3.8 0.8 3.7 2.9 0 0.6 0.3 1 0.9 1 0.7 0 0.9-0.4 0.6-1.5-0.3-1.1-0.1-1.4 0.8-1.5 0.6 0 1.7 0.4 2.4 1 0.7 0.6 1.7 1.1 2.2 1.1 0.5 0 1.6 0.6 2.4 1.3 0.8 0.8 1.7 1.4 2.2 1.3 0.4 0 1.7 0.8 2.9 1.9 1.2 1 2.6 2 3.3 2.2 0.6 0.2 1 0.6 0.9 0.9-0.5 0.9-2.7 0.7-5.2-0.3-3.6-1.6-7.2-2.2-8-1.5-0.4 0.3-0.9 0.5-1.1 0.3-0.4-0.4-3.9-1-7.4-1.3-4.9-0.5-11.1-1.8-15.7-3.3-2.7-0.9-12-2.1-13-1.7-0.4 0.2-1.4 0-2.2-0.3-3.5-1.8-5.3-0.6-4.6 3 0.5 2.7 0.4 2.8-1.9 1.8-1.6-0.7-7-2.3-8.7-2.6-2.2-0.3-8-1.9-8.5-2.2-0.3-0.2-2.1-0.6-4-0.9-1.8-0.3-3.6-0.6-3.8-0.7-0.3-0.1-2.4-0.2-4.7-0.1-2.3 0.1-5 0.2-5.9 0.3-0.9 0-2.1-0.4-2.6-1-1.3-1.4-9.2-3.3-11.3-2.8-1.1 0.3-1.7 0.1-2.2-0.6-0.6-1.1-5.5-2.5-6.4-1.9-0.3 0.2-2.5-0.2-5-0.8-3.6-1-4.4-1-4.4-0.4 0 0.6-0.4 0.8-2 0.5-1.5-0.2-2.1-0.1-2.3 0.6-0.2 0.7-0.7 0.8-2.7 0.4-2.7-0.5-6.3 0-9.1 1.3-1 0.5-2.3 1-2.9 1.3-1.1 0.5-1.1 0.5 0.1 1.3 1.1 0.8 1.1 0.8-0.3 0.6-0.8-0.2-2.8 0-4.3 0.4-1.5 0.4-3.5 0.9-4.5 1.1-1.7 0.4-2.6 0.7-6.2 2.5-0.9 0.5-2.7 1-4 1.3-5.8 1.2-12.8 4.7-17.2 8.6-0.9 0.8-2.4 1.4-4.2 1.6-3.4 0.3-10.1 3-16.9 6.6-2.8 1.5-5.9 2.7-6.9 2.8-1 0-2.1 0.4-2.4 0.9-0.3 0.4-2.5 1.5-4.7 2.3-6.1 2.3-9.4 3.6-13.3 5.4-1.9 0.9-4.6 1.9-5.9 2.3-1.3 0.3-5.3 1.3-8.7 2.1-6 1.5-8.3 2-13.9 3.6-1.4 0.4-7.1 1-12.7 1.3-9.7 0.6-10.2 0.6-10.2-0.5-0.1-1.6 4.8-3.2 7.9-2.5 0.4 0.1 0.9-0.2 1-0.7 0.1-0.5 0-0.6-0.1-0.2-0.2 0.5-0.6 0.6-1.7 0.1-1.8-0.7-0.9-1.5 1.9-1.7 1.9-0.1 2.3 0.4 1.3 1.5-0.4 0.5 0.8 0.7 4.4 0.9 5.2 0.2 9.6-0.7 21.9-4.7 2.3-0.7 5.4-1.7 6.8-2.1 6.7-2.1 8.5-2.8 9.2-4 1-1.7 6.2-3.7 10.3-4 6.6-0.4 7.2-0.5 8.5-2.1 0.7-0.8 1.8-1.5 2.4-1.5 0.6 0 1.6-0.7 2-1.5 0.5-0.8 1.6-1.7 2.4-1.9 1.8-0.5 3-1.4 2.9-2.2 0-0.7-7.2 0.2-13.2 1.7-2.3 0.6-5.8 1.9-7.7 2.9-1.9 1-3.7 1.8-4 1.9-0.3 0-1.5 0.6-2.8 1.2-2.1 1.1-4.7 1.3-4.8 0.2 0-0.2 0.8-0.6 1.7-0.9 1-0.2 2.5-1 3.4-1.7 0.9-0.7 2.5-1.4 3.5-1.6 1-0.2 2.5-0.7 3.4-1.1 1.8-0.9 2-2.8 0.3-2.7-1.3 0.1-1.6-0.8-0.5-1.3 0.4-0.2 0.5-0.5 0.2-0.7-0.3-0.2-2 0.2-4 1-1.9 0.8-6.2 2.4-9.5 3.6-3.3 1.2-7.6 2.8-9.6 3.6-2 0.8-5 1.7-6.5 2.1-1.6 0.4-4.3 1.1-6 1.6-5.9 1.8-11 3.1-12.2 3.3-1.5 0.2-3.8 2.1-4.3 3.6-0.2 0.6-1 1.1-2.1 1.2-1 0.1-1.9 0.2-2.2 0.3-3.2 1-3.6 1.3-3.3 1.9 0.4 1 0.1 1.2-3.7 1.8-2.8 0.5-3.3 0.4-3.3-0.4 0-0.6 0.5-1 1.7-1 0.9 0 1.7-0.3 1.7-0.6 0-0.3-0.2-0.6-0.5-0.6-2.6-0.1-4.9-1.1-4.2-1.7 0.1-0.1 1.9-0.5 4-0.8 4.8-0.7 12-2.9 15.8-4.9 1.6-0.8 5.8-2.4 9.3-3.5 6.7-2 15.2-5 17.1-5.9 0.6-0.3 2-0.8 3.1-1 1.1-0.3 2.2-0.7 2.5-0.9 0.7-0.6 7.9-3.2 8.8-3.3 1.1 0 4.5-2 4.5-2.6 0-0.7-4.3-0.4-6.1 0.4-0.9 0.4-2.6 1.2-3.8 1.8-7.9 3.9-11.2 5.2-12.9 5.1l-1.5-0.1 1.4-2.2c1-1.6 1.8-2.2 2.9-2.3 0.9 0 2.2-0.4 3-0.9 0.8-0.4 2.9-1.2 4.8-1.7 6.2-1.6 7.7-2.2 7.6-3-0.1-1.6-2-1.3-10.3 1.9-4.7 1.8-9.4 3.3-10.5 3.3-1.9 0.1-2 0-1.4-1.2 1.1-2.2-2-2.6-5.8-0.6-2 1-1.7 1.8 0.6 2 2.5 0.1 3.5 0.9 2 1.5-0.6 0.3-1.5 1-2 1.7-0.8 1.1-1.1 1.1-2.9 0.6-3.5-1.1-7.4-1.2-12.3-0.2-2.6 0.5-5 0.8-5.2 0.6-0.2-0.2 0.1-1.1 0.6-2.1 1-2 2.7-2.7 8.9-3.9 4.5-0.9 7.2-1.9 7.1-2.7 0-0.6-6.5 0.1-8.3 0.9-0.5 0.2-0.9 0.1-0.9-0.3 0-0.3 0.3-0.6 0.7-0.7 0.4 0 2-0.6 3.5-1.3 1.6-0.7 4.7-2 6.9-3 4.3-1.8 5-3 1.7-2.9-1.6 0.1-2-0.2-2.5-1.5-0.3-0.9-0.9-1.5-1.2-1.5-0.5 0-0.5-0.1 0-0.6 0.6-0.7 2.1-0.3 1.7 0.5-0.5 0.9 4.3 0.4 6.7-0.7 2.8-1.4 3.4-2.5 1.2-2.4-1.1 0-1.5-0.3-1.9-1.7-0.5-1.7-0.5-1.8-3-1.3-1.4 0.3-2.4 0.2-2.3 0 0.4-0.7 6.3-2.5 10.2-3.1 4.3-0.6 6.8-3.1 3-2.9-7.2 0.4-13.8 1.2-14.1 1.7-0.6 1-2.7 1.5-4.3 1.2-1.5-0.3-1.5-0.4-0.6-1.4 0.5-0.6 1.5-1.1 2.3-1.2 0.7 0 1.3-0.3 1.3-0.7 0-0.3 0.8-1 1.8-1.5 1-0.5 2.2-1.2 2.7-1.4 2.5-1.5 3.5-2 4.4-2 0.6 0 1.8-0.4 2.7-0.9 0.9-0.5 4.1-1.2 7.1-1.5 7.6-0.9 13.4-2.5 14.3-4 0.3-0.4 1.1-0.4 2.4 0 1.1 0.4 2.3 0.5 2.6 0.3 0.3-0.2 0.7 0 0.9 0.5 0.2 0.5 0.6 0.7 0.9 0.5 0.3-0.2 0.5 0.3 0.6 1.1 0.1 1.3 0.2 1.4 1.8 0.8 2.4-0.8 2.5-1 1.2-2.4-0.8-0.9-1-1.3-0.4-1.5 1.2-0.5 0.7-1.9-0.9-2.2-1.6-0.3-8.5 0.5-9.4 1.1-0.3 0.2-3.5 0.6-7 0.9-3.5 0.3-8 0.7-9.8 0.9-1.9 0.2-6.4 0.7-10 1.1-9.4 1-12.6 1.7-12.5 2.6 0 0.3-1.9 0.6-4.1 0.7-7.2 0.4-8.6 0.8-9.7 2.3-0.9 1.3-1.2 1.4-3.4 1-1.3-0.3-3-0.9-3.8-1.5-0.8-0.5-2-1-2.6-1-1.2 0-1.2 0 0.1-0.6 1.8-0.8 5.8-1 7.6-0.4 1.8 0.6 4.9 0.1 5.8-1 0.3-0.5 1.2-0.9 1.8-0.9 1.4-0.1 6.2-3.3 5.6-3.9-0.2-0.2 0.4-0.5 1.3-0.8 0.9-0.2 3.7-1 6.2-1.8 2.5-0.8 5.5-1.6 6.7-1.9 1.2-0.3 2.4-0.9 2.6-1.2 0.2-0.4 0.9-0.8 1.6-1 0.7-0.2 1.8-0.6 2.5-1l1.3-0.7-1.4-0.7c-0.8-0.4-2.8-0.7-4.5-0.6-1.7 0.1-3.9-0.2-4.9-0.6-1-0.4-2.4-0.6-3-0.4-3.4 0.7-9.7 0.9-9.9 0.2-0.2-0.4-0.8-0.7-1.3-0.7-0.6 0-1.2-0.2-1.5-0.5-0.2-0.3-0.6-0.4-0.9-0.2-0.3 0.2-0.5 0.1-0.5-0.3 0-0.3 0.4-0.8 0.9-1 0.8-0.4 0.8-0.5-0.2-0.8-1.6-0.5-14.5 0-14.8 0.6-0.3 0.5-6.2 1.7-13.3 2.7-3.4 0.5-4.1 0.7-4 1.5 0.1 0.6 1.4 1.2 3.3 1.7 1.7 0.4 3.5 1.1 4.1 1.6 0.6 0.4 1.5 0.7 2.1 0.5 1.4-0.3 8.9 0.7 9.3 1.3 0.2 0.3 0 0.5-0.4 0.5-1.9 0.2-7.6 0.2-8.7 0-0.7-0.1-2.5-0.3-4-0.3-1.5 0-3.3-0.5-3.9-1-1-0.8-1.1-0.8-1.6 0-0.4 0.8-0.6 0.8-1.2-0.2-0.7-1-0.6-1.1 0.7-1.5 2.7-0.8 0.2-2-4.1-2.1-3.8 0-4.9-0.3-5-1.1 0-0.7 7.6-2.2 14.5-2.9 3.8-0.3 7-0.8 7.1-1.1 0.1-0.2 1.2-0.5 2.3-0.5 1.1 0 2.9-0.5 4-1.1 1.6-0.9 3.6-1.2 10.7-1.5 6.9-0.3 8.8-0.6 8.7-1.2 0-1.1-1.4-1.3-7.2-1.2-8.4 0.2-14.8 1.4-17.1 3.3-1.6 1.3-2 1.4-2.6 0.8-1-1.1 0.4-2.4 4.4-4 3.1-1.3 5-2.7 3.2-2.4-0.4 0.1-2.7 0.2-5.1 0.2l-4.3 0.1 1.8-1.8c1-1 1.8-2.2 1.8-2.6-0.1-1.3-3.5-2.3-9.8-3-3-0.4-5.7-0.8-6-0.9-0.3-0.1-2.1-0.3-4.1-0.4-2-0.1-4.4-0.3-5.4-0.6-1-0.2-3.6-0.7-5.8-0.9-6.2-0.7-6.7-0.9-6.4-1.5 0.3-0.5 2.4-0.5 6.7 0.1 0.6 0.1 1.1-0.1 1.3-0.4 0.5-0.9-0.8-2-3.3-2.6-2.8-0.7-3-1.2-0.5-2.2 2.5-1 3.6-1 4.1 0 0.2 0.5 1 1.1 1.8 1.3 0.8 0.3 1.5 0.8 1.5 1.1 0 0.8 1.6 0.7 1.8-0.1 0.1-0.4 0.7-0.5 1.8-0.1 0.9 0.3 2.2 0.5 2.9 0.5 1.2-0.1 1.2-0.1 0.1-0.8-0.6-0.4-2.1-1-3.2-1.3-5.5-1.5-6.7-2.1-6.6-3.1 0.3-1.9 0.9-2 6.4-0.8 3 0.7 6.2 1.2 7.1 1.1 0.9 0 1.6 0.2 1.6 0.4 0 0.7 3.5 1.1 7.4 1 1.9-0.1 3.7 0.2 4.5 0.7 1.1 0.6 2.7 0.7 7.1 0.4 6.5-0.5 7.9-1.3 5.3-2.8-1.4-0.8-2.8-0.9-9.4-0.6-4.3 0.2-8.7 0.6-9.8 0.9-1.6 0.4-2.1 0.3-2.8-0.7-0.7-1-0.6-1.2 0.7-1.5 0.8-0.2 2.1-0.5 2.9-0.8 0.8-0.2 4.4-0.5 7.9-0.6 8.8-0.4 9.8-1.3 4.1-3.9-2.6-1.2-3.7-1.3-8.2-1.1-2.9 0.2-7 0.2-9.2 0.1-2.2-0.1-5.7-0.1-7.8 0.1-2.7 0.2-4 0-4.5-0.6-0.6-0.7-0.5-0.9 0.8-1.4l1.6-0.6-2.1-0.8c-2.9-1.2-7-1.5-9.6-0.6-1.2 0.4-3.4 0.9-4.8 1.1-1.4 0.2-3.3 0.5-4.2 0.7-1.1 0.2-1.5 0.1-1.4-0.4 0.1-0.4 0.7-0.8 1.4-0.9 0.6-0.1 1.3-0.8 1.4-1.4 0.2-1 0.6-1.1 2.3-0.9 1.7 0.2 2.2 0.1 3.4-1.3 1.2-1.4 1.6-1.5 3.6-1.3 1.4 0.2 2.4 0 2.7-0.4 0.5-1 2.9-0.9 3.8 0.1 0.5 0.5 1.3 0.7 2.2 0.6 0.7-0.2 2.4-0.1 3.7 0.1 2.5 0.5 4.2-0.4 3.6-1.8-0.2-0.4-0.1-0.8 0.2-0.8 0.3 0 0.7 0.4 0.9 0.8 0.2 0.5 1.1 0.8 2.4 0.8 2.4-0.1 2.1-0.9-0.5-1.3-1.7-0.3-1.8-0.4-1-1.2 0.5-0.6 2-1 4-1.1 1.7-0.1 3.4-0.5 3.8-0.8 0.4-0.3 1.5-0.7 2.6-0.8l1.9-0.2-2.4-3.9c-3.7-6.1-5.1-7.6-7.3-7.5-1 0-2.5-0.1-3.3-0.3-1.4-0.4-1.4-0.4 0.3-0.9 1.7-0.5 2.9-1.9 1.9-2.4-1.5-0.7-4.6-0.7-6.1 0.2-1.6 0.9-2.9 0.9-5.3-0.2-1-0.4-1.6-0.3-2.9 0.7-0.9 0.7-1.9 1.3-2.2 1.3-0.6 0-2.6-3.6-2.7-4.8 0-0.5-0.4-0.8-0.9-0.8-0.5 0-0.9-0.2-0.9-0.4 0-0.2 1-0.4 2.3-0.3 1.4 0.1 2.3-0.1 2.3-0.5 0-0.3 0.2-0.6 0.4-0.6 1.1 0.1 1.4-0.2 0.7-1-0.8-0.9-2.1-1.1-1.5-0.3 0.2 0.3-0.1 0.5-0.7 0.5-1 0-1-0.2 0.2-2.1 0.7-1.1 1.2-2.3 1.2-2.5 0-0.3 0.4-0.5 1-0.5 2.4-0.1 3.1-2.8 0.9-3.2-0.8-0.2-1.7-1-2.1-1.8-1.5-3.4-3-4.9-5.5-5.6-1.4-0.4-2.4-1-2.3-1.3 0.3-0.7 2.6-0.8 6.8-0.1 1.8 0.2 3.3 0.3 3.4 0.2 0.1-0.1 0.2-1.1 0.2-2.2-0.1-2.6-2.8-5-4.8-4.4-1.1 0.3-1.8 0-3.4-1.5-1.8-1.8-2.2-1.9-3.6-1.3-1.8 0.8-2.8 0.2-2.5-1.4 0.1-0.8 0.7-1.1 2.6-1.2 2-0.1 2.4-0.3 2-1-0.7-1.4-0.8-3.6-0.2-4.5 0.4-0.6-0.2-1.4-2-3.1l-2.6-2.3 1.5-0.3c0.8-0.1 1.6-0.6 1.8-1 0.2-0.7-1-4.8-2.6-8.5-0.4-0.9-0.7-1.9-0.6-2.1 0.1-0.2-0.1-0.4-0.5-0.4-0.3 0-0.6-0.2-0.6-0.5 0-1.1-5.7-9-6.4-8.9-0.4 0-1.2-0.4-1.7-1-1-1-1-1.1 0.2-0.8 0.7 0.1 1.4 0.5 1.6 0.8 0.4 0.7 2.6 0.5 2.5-0.1 0-0.3 0.4-0.7 1-0.8 0.8-0.2 0.8-0.3-0.2-0.3-1.5 0-3.2-1.6-3.2-3.1 0-0.6-0.7-1.9-1.5-2.8l-1.5-1.8 1.4-0.7c0.8-0.4 1.4-1 1.4-1.3 0-0.8 1.9-0.8 2.8 0 0.6 0.6 0.7 0.5 0.3-0.4-0.3-0.7-0.2-1.2 0.5-1.6 0.5-0.3 0.9-0.9 0.9-1.4 0-0.8 1.1-1.3 1.2-0.5 0.1 1.3 2.8 3.2 5.4 3.7 3.7 0.8 5 0.1 3.4-2-0.5-0.7-0.8-1.4-0.6-1.4 0.2 0-0.3-0.8-1.1-1.8-1.1-1.4-1.6-2.7-1.9-5.7-0.3-3-0.3-3.9 0.3-3.9 0.4 0 0.9 0.2 1.1 0.5 0.7 1 2.9 0.5 3.6-0.7 0.9-1.7 2.1-1.5 4.2 0.5 1.5 1.5 1.9 1.6 2.3 0.9 0.3-0.5 0.4-2.4 0.2-4.3-0.4-4.2 0.3-5.1 4-5.4 3.6-0.3 5-0.9 5.3-2.3 0.1-0.7-0.2-1.8-0.7-2.5-0.9-1.2-0.9-1.3 0.1-1.4 1.5-0.1 2.5-1.1 4-3.8 1.4-2.5 1.2-2.8-1.9-4.3-2.4-1.1-2.7-2.5-0.6-2.7 3-0.2 3.4-0.4 3.4-1.4-0.1-1.2-11.1-10.9-14.3-12.4-2.6-1.3-5.8-3.5-5-3.5 1.1 0 6 1.4 9.3 2.8 1.9 0.8 4 1.5 4.7 1.4 0.9 0 1.2 0.4 1.3 1.6 0.1 1.1 0.9 2.3 2.3 3.6 2.2 2 2.2 2 3.8 1 1.6-1.1 2.9-0.7 3 0.9 0.1 1.3 1.9 2.4 3.2 2.1 0.7-0.2 2-0.5 2.9-0.6 2.4-0.3 2.7-2.2 0.4-2.1-1.2 0.1-2.3-0.6-3.9-2-2.9-2.8-3-4-0.2-4.1 1.8-0.1 4.9-1.3 3.3-1.3-0.3 0-0.1-0.3 0.4-0.6 0.5-0.3 1.3-0.5 1.6-0.3 0.3 0.2 0.9 0.1 1.3-0.3 0.4-0.3 2-0.8 3.5-1 1.6-0.2 2.9-0.4 3-0.5 0.1 0 0.1-0.6 0.1-1.2 0-1 0.3-1.2 2.6-1.3 1.5-0.1 3-0.5 3.4-1 0.4-0.5 2.4-1.1 4.3-1.4 4.1-0.7 7.4-2 7.1-3-0.1-0.4 0.4-0.8 1.1-0.9 0.7-0.1 1.5-0.6 1.9-1.1 0.4-0.5 1.1-0.9 1.7-0.9 1 0 1-0.1 0-1.1-1.8-1.6-3.1-1.9-3.4-0.5-0.1 0.7-0.5 1-0.9 0.8-1.2-0.7-6.1-0.3-6.1 0.5 0 0.6-1.1 0.8-4.5 0.9-2.5 0.1-4.8 0.3-5.2 0.6-0.7 0.5-0.8-0.2-0.1-1.3 0.3-0.5 1.4-0.8 2.9-0.9 2-0.1 2.3-0.2 1.7-0.9-0.4-0.4-1.4-0.8-2.3-0.7-2 0.1-2.4-0.4-1.8-1.8 0.4-0.8 0.4-1.3 0-1.5-0.6-0.3-0.7-0.6-0.8-2 0-1.1-2.1-1.5-4.6-0.8-1.4 0.4-2 0.9-2.2 1.9-0.2 1.1-0.7 1.5-2.2 1.7-1.1 0.2-2.2 0.5-2.4 0.8-0.3 0.3-1.3 0.3-2.4 0-1.4-0.4-2.6-0.3-4.1 0.2-1.2 0.4-3.6 1-5.5 1.2-2.7 0.4-3.6 0.3-4.5-0.5-1.1-0.9-1.1-1 0-2 0.6-0.6 1.9-1.1 3-1.2 1.1 0 2.9-0.5 4-1.1 1.1-0.5 2.3-0.8 2.7-0.6 0.8 0.4 4-1.1 3.6-1.7-0.7-1 5.3-2.9 9.1-2.8 2.3 0.1 6.3-1.6 6.2-2.5 0-0.5 1-1 2.6-1.3 1.5-0.3 3.2-0.8 3.8-1.2 0.6-0.4 1.6-0.7 2.2-0.7 1 0 4.1-2.5 4.1-3.3 0-0.2-0.9-0.7-2-1.1-1.7-0.6-3.4-2.7-2.7-3.4 0.1-0.1 1.6 0.1 3.4 0.5 1.8 0.4 5.1 0.5 7.5 0.3l4.3-0.4-0.1-1.8c-0.1-1.4-0.4-2-1.5-2.4-0.8-0.3-2.1-1-2.9-1.5-0.8-0.5-2.1-0.9-2.9-1-0.8-0.1-1.9-0.4-2.6-0.7-1.2-0.6-1.2-0.6 0.3-1.2 1.9-0.8 2-1.5 0.2-1.8-1.8-0.3-7.1-0.6-10.4-0.7-1.9 0-3.2-0.4-4.1-1.2-0.8-0.7-1.7-1.2-2.1-1.2-1.1 0-6.5-2.2-6.5-2.7 0-0.8 2.3-0.5 2.7 0.3 0.2 0.5 0.7 0.7 1.2 0.5 0.5-0.2 0.7-0.1 0.4 0.3-0.2 0.4-0.1 0.5 0.4 0.3 0.4-0.2 1.5 0 2.4 0.4 0.9 0.4 2.1 0.6 2.6 0.4 0.5-0.2 3.7-0.5 7-0.7 7-0.4 7.8-0.6 6.8-1.7-0.4-0.4-0.5-1-0.4-1.2 0.2-0.2 3-0.6 6.2-0.8 3.2-0.2 6.1-0.4 6.3-0.5 0.2 0 0.3-0.4 0.1-0.8-0.6-1.4 1.5-1.7 3.3-0.5 1.5 1 2.4 1.1 9 0.7 4-0.2 9-0.4 11-0.5 2.5 0 3.8-0.3 4.1-0.8 0.3-0.6 0.6-0.6 1.2-0.1 0.4 0.4 1.1 0.7 1.6 0.6 0.6 0 0.3-0.5-0.8-1.2-0.9-0.6-1.9-1.7-2.2-2.4-0.4-1-1.1-1.3-2.7-1.4-2.6-0.1-2.8-1-0.3-1.8 1.8-0.6 6.4 0.1 6.4 1 0 0.3 1.2 1.6 2.7 3 2.6 2.4 4 3.1 4.6 2 0.4-0.6 23.2-2 33.6-2 4.3 0 14.7-1.5 15.6-2.3 2.3-1.7 16.8-0.4 21.7 2 0.8 0.4 1.6 1.3 1.7 2.1 0.1 0.8 0.6 1.6 0.9 1.9 1.5 1 5.4 1.6 7.1 1 1.2-0.4 2.1-0.4 3.1 0.1 0.8 0.4 2.8 0.7 4.4 0.6 1.6-0.1 3.9 0.2 5.1 0.7 1.2 0.4 3.7 0.9 5.7 0.9 2 0.1 4.4 0.5 5.4 0.8 1 0.4 2.9 1 4.4 1.3 2.2 0.6 2.7 0.9 3 2.4 0.3 1.5 0.6 1.7 2.5 1.8 1.2 0 2.4 0.4 2.8 0.9 0.4 0.4 1.1 0.8 1.5 0.8 0.4 0 1.1 0.5 1.4 1.1 0.4 0.6 1.3 1.1 2 1.1 0.8 0 1.6 0.2 1.8 0.6 0.5 0.7 8.6 4.2 9.6 4.1 0.4 0 2.1 0.6 3.8 1.3 2.5 1 3.2 1.7 3.6 3 0.6 2.2 2.6 4.5 3.9 4.4 0.6 0 1.2 0.5 1.4 1.1 0.2 0.6 1.3 1.5 2.4 2 1.1 0.5 2.5 1.6 3.1 2.5 0.6 0.9 1.8 2 2.8 2.4 0.9 0.4 1.7 1.2 1.8 1.6 0 0.4 0.7 1.2 1.5 1.7 0.9 0.5 1.5 1.4 1.5 2.3 0 0.8 0.5 1.7 1 2.1 2.6 2 5.1 4.6 5 5.3-0.2 1 1.1 2.8 3.3 4.6 2.5 2.1 2.6 2.7 0.5 5.8-1 1.6-1 1.6 0.4 6 0.8 2.5 1.7 4.9 2 5.4 0.3 0.5 0.6 2.2 0.6 3.8 0.1 3.4 0.5 4.1 2 4 1.4-0.1 1.5 0.6 0 1.6-1.2 0.9-1.4 3.2-0.3 5.6 0.5 1.1 0.5 1.9-0.1 3.2-1 2.2-0.5 3.3 1.5 3.6 0.8 0.1 2.8 0.6 4.3 1 1.5 0.4 3 0.7 3.2 0.7 0.7 0 1.7-2.7 1.7-4.2 0-1 0.1-1.1 0.9-0.5 1.3 1 1.5 0.5 0.5-1.6-0.9-1.9-2.4-2.3-3.6-1.1-1.4 1.5-2-0.1-1.9-5.2 0.1-5.3 0.3-6.3 1.3-6.3 0.3 0 0.4 0.2 0.2 0.6-0.2 0.3 0.1 0.6 0.5 0.6 0.5 0 1.4-0.9 2-2 0.6-1.1 1.6-2.2 2.3-2.4 1-0.3 1.1-0.6 0.7-2.4-0.6-2.7 0.7-2.8 3-0.2 2 2.3 3.1 2.3 6.8 0.5 2.9-1.5 3.5-2.4 2.6-4.3-0.4-0.9-0.5-2.2-0.2-4.2 0.4-2.6 0.3-3.3-1-5.7-3.3-6.2-3.3-6.1-2.3-5.4 0.9 0.7 2.1 0.3 2.1-0.7 0-0.3-1.2-1.7-2.7-3.2-2.5-2.4-2.6-2.6-1.4-2.8 1.2-0.2 2.6 0.8 4 3.1 0.5 0.7 0.7 0.7 1.8-0.2 1.8-1.4 3.3-1.4 3.4 0.1 0.1 1.6 0.9 2.9 3.1 4.9 1.1 1 1.8 2.3 1.9 3.1 0.1 1.7 1 2.4 2.1 1.4 1.2-1.1 4.3 0 4.4 1.7 0 0.2-0.8 0.8-1.8 1.3-1 0.5-2.3 1.5-2.9 2.2-1.1 1.3-1.1 1.3 0.2 1.6 0.7 0.1 1.3 0.8 1.5 1.5 0.1 0.7 0.7 1.3 1.4 1.3 0.9 0.1 1.2 0.6 1.3 2.2 0.3 3.8 3.9 5.1 7.5 2.7 1.4-0.9 2.2-1.1 3.2-0.8 0.8 0.3 2.9 0.3 4.8 0.2 3.2-0.3 3.5-0.4 5.3-2.8 1.1-1.4 2.6-3 3.4-3.6 4.6-3.3 7.6-5.7 8.7-7.1 1.8-2.1 2.5-2 2.6 0.4 0.1 1.5-0.2 2.2-1.3 2.8-5.6 3.1-12.2 10.5-12.1 13.4 0 0.8-0.2 1.4-0.6 1.4-0.3 0-1 0.4-1.4 0.9-0.4 0.5-1.2 0.7-1.7 0.6-1.1-0.4-3.8 2.5-3.4 3.6 0.2 0.5 1.5 0.9 3.1 1 1.5 0.1 4.6 0.4 6.8 0.6 9.1 0.9 12.9 1.2 15.9 1.4 4.5 0.3 5.9 0.5 5.6 1.1-0.1 0.3-1.8 0.4-3.6 0.2-5.8-0.5-14.2-0.4-15.6 0.2-1.1 0.5-1.2 0.7-0.6 1.4 0.9 1 2.4 1 3.3 0 0.5-0.5 0.7-0.5 0.9 0.1 1.2 3.8 1.5 4.2 2.9 4.3 0.8 0.1 1.7 0.3 1.9 0.6 0.3 0.2 1.9 0 3.7-0.6 3.6-1.1 5.6-1.3 6.8-0.4 0.4 0.3 2.4 0.5 4.3 0.4 2.2-0.1 4.2 0.1 5.3 0.6 1.4 0.7 2.7 0.7 6.3 0.2 2.5-0.3 5.8-0.5 7.4-0.3 2.5 0.2 2.9 0.4 2.7 1.4-0.2 0.9 0.1 1.1 1.8 1 1.1 0 2.5 0.3 3.2 0.8 1 0.8 1.4 0.8 3.8 0.1 5.8-1.8 7.8-2 9.6-1.3 1.6 0.6 7.8 1.9 11 2.3 0.6 0.1 2.2-0.3 3.4-0.8 2.8-1.1 7.3-1.6 25.5-2.7 7.7-0.5 14.7-1 15.5-1.1 0.8-0.1 2.1 0 3 0.4 0.8 0.4 1.7 0.5 1.9 0.3 0.2-0.2 2.5-0.5 5.1-0.7 11-0.6 10.8-0.6 10.6-2-0.2-1.1 0.1-1.3 2.3-1.5 2.7-0.3 5.2 0.5 5.2 1.6 0 0.8 2.3 1.4 3 0.9 0.9-0.6 0.4-1.3-0.9-1.5-1.3-0.1-1.3-0.2-0.2-0.8 0.6-0.4 5.1-1 10-1.5 4.9-0.4 9.5-0.9 10.3-1 0.8-0.1 2.2-0.3 3.3-0.4 1-0.1 2.2-0.6 2.6-1 0.7-0.7 1.4-0.8 4.5-0.4 3.4 0.4 17.6-0.5 22-1.3 3.7-0.7 13.7-1.6 13.3-1.1-0.2 0.3-1.6 0.5-3 0.5-1.4 0-2.6 0.3-2.6 0.6 0 0.3-0.8 0.6-1.9 0.7-1.1 0-3.3 0.4-5 0.8-1.7 0.4-3.8 0.9-4.8 1.1-0.9 0.2-2.1 0.5-2.6 0.6-0.5 0.1-1.7 0.3-2.8 0.3-1.1 0.1-1.7 0.4-1.5 0.7 0.4 0.6 8.2-0.1 11.2-1 1.6-0.5 12.7-2.1 16-2.4 11.7-0.8 23.1-1.9 24.8-2.4 1.2-0.4 5.4-0.9 9.4-1.2 4-0.3 8.6-0.7 10.1-1 1.6-0.3 3.9-0.7 5.3-0.9 1.6-0.3 2.4-0.7 2.4-1.3 0-0.5 0.4-0.8 1-0.7 0.7 0.1 1-0.2 1-1 0-0.8-0.4-1.1-1.1-0.9-0.6 0.1-1-0.1-0.9-0.5 0.4-1.2 5-2.4 12-3.1 8-0.7 7.9-0.7 11.4-2.4 1.5-0.7 3.9-1.4 5.4-1.5 1.5-0.1 4.1-0.5 5.8-1 2.9-0.8 8-0.8 8.9 0 0.2 0.2-0.9 0.6-2.4 0.8-1.5 0.3-3.6 0.9-4.7 1.4-1 0.5-2.8 0.9-4 0.9-1.2 0-3.4 0.4-4.9 0.8-1.6 0.4-5 1.1-7.7 1.5-2.7 0.4-4.9 0.9-5 1.2-0.1 0.3-1.6 0.5-3.4 0.5-4.2 0-5.2 0.6-4.1 2.5 0.6 1.1 1.2 1.3 3 1.2 1.2-0.1 2.4-0.3 2.6-0.6 0.2-0.2 1.2-0.5 2.3-0.5 1.1 0 1.9-0.3 1.9-0.6 0-0.3 0.6-0.4 1.6-0.1 0.9 0.3 2.4 0.4 3.3 0.2 2.5-0.4 6.5-1.9 6.5-2.5 0-0.3 0.6-0.5 1.3-0.5 1.1 0 1.1 0.1 0.5 0.6-0.6 0.5 1.2 0.5 6.2 0 4.1-0.4 7.4-0.9 7.9-1.3 0.4-0.4 3.2-0.9 6.1-1.2 3.5-0.3 6.1-0.9 7.5-1.7 1.3-0.7 3.5-1.2 5.4-1.3 1.8-0.1 3.9-0.6 4.9-1.1 0.9-0.6 3.2-1.1 5.1-1.3 1.9-0.1 3.7-0.4 4.1-0.7 0.6-0.4 1.3-0.6 11.3-2.3 3.5-0.6 8.3-1.5 10.7-1.9 2.4-0.4 9.3-2.3 15.4-4.1 6-1.8 11.7-3.5 12.7-3.7 0.9-0.2 3.2-0.7 5.1-1.2 1.9-0.4 4.1-0.9 4.8-1.1 0.8-0.2 3.3-0.7 5.5-1.1 3.8-0.7 11-2.9 22.5-7.1 2.5-0.9 6.3-2.6 8.5-3.7 6.6-3.5 7.1-3.6 7.1-2.2 0 1.1 0.3 1.2 2.6 0.7 1.4-0.3 4.5-1.3 6.8-2.4 2.4-1 4.7-1.9 5.1-1.9 0.4 0 1.3-0.6 2-1.2 0.7-0.7 1.8-1.2 2.5-1.3 1.6-0.1 3.7-1.7 6.6-5 1.7-2 2.9-2.9 4-2.9 1.7-0.1 1.8 0.1 1 1.8-0.9 2-1.1 4.4-0.2 4.3 2.3-0.2 2.8 0.1 2.8 1.7 0.1 1.4 0.3 1.6 1.3 1.3 0.6-0.2 1.4-0.8 1.7-1.4 0.4-0.8 1-0.9 2.7-0.7 2.4 0.3 4.1-0.2 5.8-1.9 0.6-0.6 1.5-1.1 1.8-0.9 0.4 0.1 1.8-0.8 3.1-2.1 1.9-1.8 2.7-2.3 3.4-1.9 1.8 0.9 4.1-0.8 9.1-6.7 0.6-0.7 1.3-1.3 1.5-1.3 0.7 0 0.7 2.1 0 2.6-1.2 0.8-4.3 6.9-4 7.7 0.3 0.8 0.5 0.8 1.7-0.1 2-1.5 3.1-1.3 3.2 0.4 0 0.8-0.2 2-0.5 2.7-0.8 1.7 0.3 2.6 2.1 1.6 0.8-0.4 1.4-0.5 1.4-0.3 0 0.7 7.1-0.3 8.3-1.2 0.6-0.5 1.6-0.9 2.1-0.9 1.2-0.1 3-1.1 4.7-2.7 0.7-0.7 1.6-1 2.3-0.8 1.4 0.4 4.1-0.9 4.1-2 0-0.4 0.3-0.6 0.6-0.4 0.4 0.2 0.6 1.1 0.5 2.1-0.1 0.9 0.1 1.8 0.3 2 0.9 0.5 3.9-0.6 3.5-1.2-0.2-0.4-0.1-0.4 0.3-0.2 0.4 0.2 1.4-0.4 2.3-1.4 1.5-1.7 3.9-2.1 3-0.6-0.2 0.4 0 0.5 0.4 0.3 0.4-0.2 2.2-0.9 3.9-1.6 2.5-1 3.3-1.7 4.4-3.7 1.3-2.3 2.8-3.4 2.8-2 0 0.3 2-0.5 4.4-1.9 5-2.9 5.5-3 5.9-1.5 0.3 1.1-0.4 2.4-1.3 2.4-0.8 0-8.4 5.9-9.8 7.6-0.7 0.9-1.6 1.6-1.8 1.6-0.3 0-1.3 0.8-2.3 1.8-1 1-2.1 1.8-2.4 1.8-0.4 0-0.7 0.2-0.8 0.5-0.1 0.3-1.6 1.1-3.3 1.9-3.1 1.5-6.2 4-6.1 5.2 0 0.3-1.1 1.4-2.5 2.4-1.4 1-2.5 2-2.5 2.3 0 0.3-0.4 0.5-0.9 0.6-0.5 0-1.5 0.6-2.1 1.2-0.6 0.6-2.7 1.5-4.5 1.9-1.9 0.4-3.8 1.1-4.2 1.6-1.5 1.4-8 4.7-12.1 6.1-4.7 1.7-5.4 2.2-5 3.7 0.1 0.6 0 1.1-0.3 1.1-0.3 0-0.5 0.4-0.5 1 0 1 0.4 1 5.1-1.2 3.9-1.8 6.8-2.4 6.8-1.4 0 0.9 4.2 0.1 6.5-1.3 1.5-0.9 10.7-4.6 11.3-4.7 0.2 0-0.6 0.9-1.8 2-1.9 1.8-4.7 3.8-9.2 6.4-1.3 0.7-1.5 1.2-1.3 2.6 0.2 1.2-0.1 1.9-0.9 2.4-2.1 1.3-2.5 2.4-2 5.1 0.3 1.4 0.6 2.8 0.7 3 0.4 0.7 2.5-0.8 2.4-1.7 0-0.5 0.2-0.8 0.4-0.9 0.2 0 1.2-0.7 2-1.5 1.5-1.4 2.2-1.8 2.8-1.4 0.1 0.1 1.1-1.1 2.3-2.5 1.1-1.5 2.3-2.8 2.6-3 0.3-0.2 0.9-1.2 1.4-2.2 1.3-2.6 3.8-6.7 4.9-8 0.6-0.7 0.8-1.8 0.7-2.7-0.2-1.4 0-1.7 2.3-2.6 1.9-0.8 2.5-0.9 2.5-0.3 0 0.4-0.3 1.1-0.8 1.5-0.5 0.4-0.8 1.2-0.8 1.7 0 0.5-0.3 1.5-0.8 2.3-0.5 0.7-0.7 1.3-0.5 1.3 0.2 0-0.2 1.2-1 2.6-0.9 1.7-1.2 2.7-0.8 3 0.3 0.2 0.9-0.1 1.3-0.7 1-1.4 2.9-1 3.1 0.7 0.2 1.1-0.3 1.7-1.6 2.7-1.6 1.1-3.1 4.1-2.4 4.7 0.1 0.1 1.1 0 2-0.4 2.6-0.9 3.8 0.9 3.1 4.4-0.1 0.5 0.3 0.9 1.1 1 1.3 0.1 4.1-2.6 4.1-3.9 0-0.8 1.5-1.6 2.3-1.2 0.3 0.2 0 1.9-0.6 3.8-0.7 2.2-0.9 3.7-0.5 4 0.3 0.3 2.1 0.5 4 0.6 2.9 0.1 3.7-0.1 5.1-1.2 1.5-1.2 3-1.5 8-1.9 1-0.1 2 0.3 2.5 0.9 0.4 0.5 0.8 0.7 0.8 0.3 0-0.7 0.9-1.1 3.9-1.8 1.5-0.3 2-0.2 2.2 0.6 0.6 1.8 4.1 2.3 7.8 1.1 3.2-1 5.4-0.9 4.8 0.2-0.2 0.3-0.9 0.6-1.7 0.7-0.9 0-1.3 0.4-1.2 1.1 0.1 0.8-0.4 1.1-2.2 1.3-1.3 0.2-2.5 0.5-2.8 0.8-0.3 0.3-1.1 0.6-1.8 0.6-0.7 0-1.6 0.7-2.1 1.5-0.5 0.8-1.3 1.6-1.9 1.8-0.7 0.2-1 0.8-0.9 1.7 0.1 0.7 0.2 1.5 0.3 1.7 0.2 1.2 6.9-0.4 6.9-1.7 0-0.3 0.3-0.5 0.7-0.5 1.3-0.1 5.3-4.2 6.2-6.3 0.5-1.1 1.2-2 1.6-2 0.4 0 0.8-0.2 0.8-0.5 0-0.7 3.4-2.6 4-2.3 0.8 0.4 0.7 1.2-0.4 3.7l-1 2.3 1.7 0.3c0.9 0.2 3.8 0 6.3-0.3 3.6-0.5 5.3-1.1 8.3-2.8 2.1-1.2 3.9-2.4 4-2.6 0.4-0.6 2.8-2 2.8-1.6 0 0.9-0.7 2.1-1.3 2.1-0.4 0-0.9 0.4-1 0.9-0.2 0.5-0.8 0.9-1.5 0.9-0.7 0-1.1 0.4-1.1 0.9 0 0.5-0.3 0.9-0.8 0.9-0.5 0-1.7 0.9-2.7 1.8-1 1-2.2 1.8-2.5 1.8-0.4 0-1.6 0.7-2.7 1.5-1.1 0.8-2.7 1.7-3.4 1.9-0.7 0.3-1.6 0.8-2 1.2-0.4 0.4-2.2 1.5-3.9 2.5-2.1 1.1-3 2-2.5 2.2 0.4 0.2 1.6-0.1 2.7-0.7 3.1-1.8 5.7-2.3 5.7-1.2 0 0.5-0.2 0.9-0.5 0.9-0.3 0-0.7 0.5-0.8 1.1-0.3 1-1.5 1.7-10.2 6-3.2 1.6-4 2.4-4.9 5.4-0.9 2.9-1.1 4.3-0.8 4.3 1.9-0.4-0.1 2-3.5 4.1-1.8 1.1-4 5.1-4.7 8.6-0.2 0.8-0.9 2-1.7 2.5-1.1 0.8-1.3 1.3-1 3 0.3 1.7 0.1 2.1-0.9 2.6-2.2 0.9-7.4 7.1-8.8 10.4-1.4 3.2-3.3 5-4.9 4.4-1.2-0.4-1.2-2 0-4.2 0.6-1.1 0.8-2 0.5-2.2-0.7-0.4-5.3 0.4-8.1 1.3-2.4 0.8-2.8 2.3-0.7 2.2 0.8 0 2 0.4 2.8 1 1.2 0.9 1.3 1.2 0.7 2-0.4 0.5-0.9 0.8-1.2 0.7-0.8-0.5-6.7 1.8-8 3.2-0.7 0.7-2.4 1.8-3.8 2.5-1.4 0.6-2.8 1.6-3.2 2.3-0.4 0.6-1.1 1.2-1.5 1.2-0.4 0-1 0.3-1.2 0.7-0.3 0.5-0.1 0.5 0.4 0.2 0.4-0.3 0.2 0.2-0.5 1-0.9 1.1-1.1 1.6-0.5 1.8 0.4 0.1 0.9 0.9 1 1.8 0.1 1.1-0.2 1.7-1.2 2.2-0.8 0.4-1.4 0.9-1.4 1.2 0 0.2-0.6 1.2-1.4 2.1-0.8 0.9-1.8 2.2-2.4 2.9-0.5 0.7-1.6 2.1-2.4 3.3l-1.4 2.1 1.6 1.2 1.6 1.2 3.6-4c2-2.2 3.8-4.6 4.1-5.2 0.3-0.7 1.2-1.6 2.1-2 0.8-0.4 1.5-1 1.5-1.3 0-0.6 2.6-1.9 4-2 0.7 0 1 0.2 0.8 0.8-0.2 0.5 0 0.9 0.3 0.9 1.2-0.1 2.4-0.8 2.3-1.6 0-0.4 0.5-0.9 1.1-1.2 0.6-0.2 1.1-0.8 1.1-1.2 0-0.5 0.2-0.8 0.5-0.8 0.8 0 2.8-3.3 3-4.9 0.1-0.7 0.9-1.9 1.7-2.6 0.8-0.7 1.4-1.5 1.2-1.7-0.5-0.5 2.3-3.8 3.3-3.9 0.7 0 0.7 0.2-0.1 1.1-0.5 0.6-0.7 1.3-0.5 1.5 0.2 0.2 0 0.3-0.5 0.1-0.7-0.2-1 0.1-1.2 1.2-0.2 0.8-0.2 1.7 0 2 0.2 0.2-0.8 1.7-2.1 3.2-1.3 1.5-2.8 3.6-3.2 4.7-1.2 2.7-1.8 3.9-4.4 7.4-1.3 1.7-2.3 3.5-2.3 4 0 0.4-0.3 1-0.7 1.3-0.4 0.3-1 1.2-1.4 2-0.4 0.8-1.6 2-2.6 2.7-1.1 0.6-1.9 1.5-1.9 2 0 0.7-0.1 0.7-0.9 0.1-1.1-0.8-4.9 0.3-6.5 1.9-1.4 1.4-2.8 2.4-4.7 3.3-1.2 0.6-1.4 0.9-1 1.7 0.4 0.7 0.3 1.6-0.4 3-0.5 1.1-1.1 1.9-1.3 1.7-0.5-0.5-2.6 2-2.6 3 0 0.5-0.5 1.2-1.2 1.4-0.7 0.2-2 1.5-2.9 2.7-2.3 3.2-6 5.7-4.7 3.1 0.3-0.7 0.4-1.4 0.2-1.7-0.2-0.3-0.2-0.5 0.1-0.5 0.8 0.2 3.5-1.5 3.2-2-0.2-0.3 0.1-0.5 0.6-0.5 0.5 0 0.9-0.4 0.9-0.9-0.1-1.6 1.6-4.7 2.8-5.4 0.7-0.3 1.6-1.5 2.2-2.5l1-1.9-1.7 0.1c-2.1 0.1-5.3 1.3-5.2 2 0 0.3-0.3 0.5-0.7 0.4-0.8-0.1-5.6 1.5-6.1 2.1-0.9 1-9.6 4.6-11.9 4.9-1.8 0.2-3.4 1.1-3.1 1.6 0.2 0.3 0.1 0.5-0.3 0.5-1.2 0.1-1.5 0.2-1.8 0.7-0.2 0.3-0.9 0.4-1.7 0.1-0.8-0.3-2-0.2-3 0.2-1.8 0.8-2 1.3-0.7 1.7 0.5 0.2 0.9 0.7 0.9 1.1 0 0.4 0.4 0.9 0.9 1.1 0.5 0.2 0.9 0.6 0.9 0.9 0 0.9-5.4 3.5-10.1 4.8-2.3 0.6-5.5 1.8-7 2.6-1.5 0.8-3.2 1.5-3.7 1.5-0.6 0-1.3 0.5-1.7 1-0.5 0.6-1.6 0.9-3.9 0.9-3.4 0-4.6 0.5-4.6 1.7 0.1 1.2-2.6 2.9-6.8 4.5-4.3 1.6-9 4.5-8.7 5.4 0.1 0.3 1.2 0.5 2.5 0.3 1.2-0.1 1.9-0.1 1.4 0.1-3.4 1.4-5.2 2.5-5.9 3.8-0.5 0.8-1.2 1.4-1.5 1.3-0.4 0-1.4 0.3-2.3 0.7-0.9 0.4-1.8 0.7-2.1 0.8-1.6 0.1-5.7 3-6.2 4.4-0.3 0.9-0.8 1.5-1.1 1.3-0.3-0.1-0.5 0-0.4 0.3 0 0.3-0.3 0.5-0.8 0.3-0.5-0.2-0.9 0.2-1.1 1.1-0.2 0.7-0.9 1.6-1.6 2-0.7 0.4-1.3 1.1-1.2 1.8 0.1 1.6-2.1 2.6-5.1 2.4-2.7-0.2-3.7 0.7-2.2 2 1.3 1.1 0.7 2-1.1 1.7-1-0.2-1.4-0.1-1.4 0.5 0.1 1.4-2.6 4.1-4 4-2.1-0.1-2.5 0.1-2.6 1 0 0.5-0.1 1.2-0.1 1.7 0 0.5-0.3 0.7-0.6 0.6-0.3-0.2-0.5 0.1-0.5 0.6 0 0.5-0.4 0.9-0.9 0.9-0.5 0-0.8 0.3-0.6 0.5 0.2 0.3-0.3 0.8-1.1 1.3-0.8 0.5-1.4 1-1.4 1.3 0 0.2-0.9 0.3-2 0.2-1.4-0.2-2.4 0.1-3.6 1-1.9 1.5-8.1 3.1-8.1 2.1 0-0.3-0.9-0.5-2-0.4-1.6 0.1-2 0.3-2 1.2 0 0.6-0.2 1.2-0.5 1.2-0.3 0-0.6 0.5-0.5 1.2 0 0.6 0.3 1.1 0.6 1.1 0.3 0 0.7 0.4 0.9 0.9 0.5 1.2-1.6 3.7-3.2 3.8-0.7 0-1.6 0.8-2.3 1.8-0.6 1-1.5 1.8-2 1.8-0.5 0-1 0.2-1.1 0.5-0.1 0.2-1.1 0.9-2.1 1.4-1.1 0.5-3.6 1.9-5.6 2.9-2 1.1-4.9 2.1-6.4 2.4-2.8 0.5-8.5 3.1-9.1 4.2-0.2 0.3-0.9 0.6-1.5 0.7-0.6 0-1.3 0.4-1.4 0.9-0.2 0.5-1.3 1.2-2.5 1.6-1.2 0.4-2.1 0.9-1.9 1.2 0.5 0.7 9.5-0.2 13.2-1.4 6.6-2.1 12.3-4.3 14-5.5 1-0.6 3.9-1.5 6.4-1.9 2.5-0.4 5.3-1.1 6.1-1.4 0.8-0.4 2.1-0.8 2.8-1 2.2-0.5 9-3.4 9.4-4 0.8-1.2 5.2-3.3 7-3.4 1.1 0 2.4-0.5 3-1 0.6-0.5 1.5-0.9 2-1 0.5 0 1.2-0.4 1.6-0.9 0.3-0.5 1.9-1.3 3.5-1.9 1.6-0.6 4.4-2.1 6.3-3.4 3.9-2.6 13.9-8.2 15-8.5 2.3-0.5 5.5-2 6.7-3.2 0.8-0.8 2.9-2.2 4.7-3.3 1.9-1 5.5-3.4 8.1-5.3 2.6-1.9 5-3.4 5.4-3.4 0.4 0 1-0.5 1.4-1 0.4-0.5 2.3-1.8 4.2-2.8 1.9-1 4.5-2.9 5.9-4.3 2.4-2.5 14.4-11.5 15.3-11.5 0.3 0 1.4-1.1 2.5-2.4 1.2-1.4 3.1-2.7 4.8-3.4 1.5-0.6 3.5-1.8 4.4-2.8 0.9-0.9 2.2-1.8 2.8-2 0.6-0.1 1.1-0.6 1.1-0.9-0.1-1.4 0.9-1.5 2.3-0.2l1.4 1.4-1.9 1.8c-1.1 1-2.8 2.6-3.8 3.7-1 1.1-2 2-2.2 2-0.7 0-2.4 2.8-2.4 3.9 0 1.5-1.6 3.2-3.1 3.2-0.6 0-1.6 0.6-2.1 1.2-0.5 0.6-1.7 1.5-2.6 1.9-0.9 0.4-1.6 1.1-1.6 1.5 0 1-3.2 4.3-4.7 4.8-0.6 0.2-1.6 0.8-2.1 1.3-0.5 0.5-1 0.7-1 0.5 0-0.2-0.9 0.3-1.9 1.1-1 0.9-2.1 1.6-2.3 1.6-0.2 0-1.9 1.1-3.8 2.5-1.9 1.3-3.7 2.5-4.1 2.5-1 0-4.2 1.9-4.2 2.5 0 0.3-0.7 0.7-1.5 0.9-0.9 0.3-4.4 2-7.8 3.9-3.4 1.9-6.7 3.4-7.2 3.4-0.6 0-1.6 0.7-2.2 1.5-0.7 0.8-2.2 2-3.4 2.7-3.4 2.1-4.3 2.7-5.4 4.2-0.6 0.7-1.2 1.2-1.5 1.1-0.3-0.1-1.3 0.4-2.3 1.2-1 0.8-2.2 1.5-2.6 1.5-0.4 0-2 1.2-3.7 2.6-1.6 1.4-3.6 2.9-4.4 3.4-0.8 0.4-2.5 1.5-3.9 2.4-4.4 2.7-8.8 5.2-9.5 5.2-0.4 0-1.4 0.6-2.3 1.3-0.9 0.7-2.9 1.7-4.6 2.3-1.6 0.6-3.4 1.4-3.8 1.8-1.5 1.4-8.7 3.7-13 4.1-2.7 0.3-4.6 0.8-5.2 1.4-0.5 0.5-1.5 1-2.3 1.1-0.7 0.1-1.7 0.4-2.2 0.6-4.5 1.8-13.4 3.9-16.9 4-1.3 0.1-3 0.4-3.8 0.7-0.8 0.3-4.1 0.9-7.6 1.2-3.4 0.4-6.6 0.9-7.1 1.2-2.5 1.5-6 2.6-8.5 2.7-1.5 0.1-3.7 0.6-4.9 1.1-2.3 1.1-9 2.9-12.8 3.5l-2.6 0.4 2-1.2c1.2-0.7 2.6-1.1 3.4-1 1.4 0.2 1.4 0.2 0.2-0.7-1.3-1-4.3-0.7-8.1 0.8-1.8 0.7-1.9 0.9-1.1 1.5 1.5 1.2 1.2 1.6-2 2.4-7.2 1.7-8.8 1.8-11.1 0.5-2.1-1.2-3.1-1.2-8.6 0.1-0.9 0.2-2.3 0.5-3 0.6-0.7 0.1-1.5 0.5-1.7 0.9-0.2 0.3-1.4 0.8-2.6 1.1-2.6 0.5-2.6 0.5-8.9 0.7-2.5 0.1-4.8 0.3-4.9 0.4-0.2 0.2-1.3 0.1-2.4-0.3-2.8-0.8-6.3-0.2-5.5 1 1.3 1.9 9 3 8.2 1.2-0.2-0.4 0.1-0.8 0.8-0.9 0.6-0.1 1.3 0.2 1.5 0.7 0.2 0.4 0.8 0.8 1.2 0.8 0.8 0 0.7 0.1-0.1 1.1-0.9 1.1-0.9 1.2 3.1 1 2.2-0.1 4.6 0.1 5.2 0.4 0.6 0.3 3.1 0.5 5.5 0.4 3.4-0.1 4.3-0.4 4.6-1.1 0.3-0.8 1.3-0.9 7.4-0.9 12.9 0 14.9 0.3 16.4 1.9l1.4 1.4-4.1 0.8c-2.3 0.4-4.8 0.6-5.8 0.4-2.3-0.5-19.7 0.8-22 1.7-1.9 0.7-3.9 1-17.9 2.4-4.9 0.5-10.2 1.3-11.8 1.9-1.7 0.6-3.2 0.8-3.7 0.5-1.3-0.7-4.9-0.4-5.6 0.6-0.4 0.6-1.2 0.8-2.1 0.6-1.4-0.3-4.2 0.9-4.1 1.8 0 0.6 2.5 1.4 5 1.6 2.3 0.2 7.9 2.4 7.9 3.1 0 0.3-2.2 0.5-5 0.4-19.8-0.1-25.5 0.2-25.4 1.6 0 1.1-5 1.5-11.2 0.8-2.9-0.3-6.1-0.5-7.2-0.5-1.1 0-6.5 0-12.1 0-10.2-0.1-16.4 0.5-15.7 1.5 0.2 0.3-0.4 0.5-1.6 0.5-3.8 0-4.5 0.1-4.1 1.1 0.2 0.6 0.1 0.8-0.3 0.7-0.4-0.1-0.7-0.5-0.7-0.8-0.1-0.6-5.1-1.7-7.2-1.7-1.1 0-1.1 0.1-0.1 0.8 0.7 0.5 0.9 1.1 0.7 1.7-0.3 0.8-0.8 1-2.7 0.7-4.7-0.6-8.6-0.5-9.8 0.2-0.7 0.4-2.3 0.8-3.8 1-3.3 0.4-8.9 1.1-8.9 1.2 0 0-0.6 0.2-1.4 0.4-0.8 0.2-1.5 0.6-1.6 0.9-0.1 0.3-1.4 0.6-2.8 0.7-3 0.1-4.2 0.8-3.9 1.9 0.1 0.4-0.1 0.9-0.6 1.1-0.5 0.2-0.6 0.1-0.4-0.3 0.4-0.7-1.8-2-2.6-1.4-0.5 0.3-0.9-1.2-0.7-3 0.1-0.9-0.1-0.9-4.3 0.1-3.8 0.8-8.2 2.6-8.2 3.2 0 0.9-3.1 1.9-7.8 2.4-2.7 0.3-6 1-7.2 1.5-1.2 0.5-2.8 1-3.4 1.1-0.6 0.1-2 0.7-3.1 1.3-1.4 0.8-4.8 1.3-12.9 2.1-6 0.6-11.9 1.4-13.2 1.8-1.2 0.4-3.9 1.1-6 1.7-5.9 1.5-6.8 1.8-7.1 2.4-0.2 0.3-1.3 0.6-2.4 0.6-1.2 0.1-2.4 0.4-2.7 0.7-0.3 0.4-2.1 0.6-4.1 0.6-1.9 0-3.5 0.1-3.5 0.4 0 0.4-2.5 0.7-2.9 0.3zm96.9-21.8c0.7-0.5 0.7-0.7 0-1.1-1-0.6-3.7-0.6-4.2-0.1-0.2 0.2-0.2 0.7 0 1.2 0.4 0.9 3 0.9 4.2 0zm104.3-9.4c1.7-0.1 3.6 0 4.2 0.2 0.6 0.3 1 0.2 1-0.2 0-0.3-0.5-0.8-1-0.9-0.5-0.2-1.6-0.9-2.2-1.6-1-1-2.2-1.3-6.7-1.6-3-0.2-6.7-0.5-8.2-0.7-1.5-0.2-2.6-0.1-2.4 0.1 0.2 0.3-0.7 0.5-2 0.6-1.3 0.1-2.3 0.3-2.3 0.6 0.1 1.2 1.9 2.1 4 2.1 1.3 0 3.1 0.3 4.1 0.8 1 0.5 2.1 0.7 2.4 0.5 0.3-0.2 0.9-0.1 1.3 0.1 1 0.7 2.9 1.1 3.9 0.7 0.5-0.2 2.3-0.4 4-0.6zm35.6-15.7c0.6-0.5 0.5-0.6-0.8-0.5-0.9 0-1.5 0.3-1.2 0.6 0.5 0.7 0.9 0.7 2-0.1zm-95.9 2.1c-0.4-0.1-0.9-0.1-1.1 0.1-0.2 0.2 0.2 0.3 0.8 0.3 0.7-0.1 0.8-0.2 0.3-0.4zm14.2-2.3c0.7-0.7-0.4-0.9-4.7-0.6-2.3 0.1-4.1-0.2-6.6-1.2-2.3-0.9-3.6-1.2-4.1-0.8-0.4 0.3-1.2 0.7-1.8 0.8-1 0.2-0.9 0.4 0.5 1.2 1.1 0.7 3.1 1 6.3 1.1 2.6 0 4.8 0.2 4.9 0.3 0.4 0.4 4.7-0.3 5.3-0.9zm-24.3-1.2c-0.8-0.4-2-0.7-2.8-0.6-1.4 0.1-1.4 0.1-0.3 0.8 0.6 0.4 1.9 0.7 2.8 0.6l1.7-0.1-1.4-0.7zm144.7-9.1c0-0.9-1.6-1.4-2.8-1-0.4 0.2-0.7 0.5-0.7 0.8 0 0.4 0.6 0.6 3.1 0.9 0.2 0 0.4-0.3 0.4-0.7zm-243.5-2.5c0-0.3 0.2-0.4 0.6-0.2 0.3 0.2 0.6 0.1 0.6-0.3 0-0.6-1.4-0.8-7-1.2-3-0.2-3.1-0.1-2.2 0.7 1.6 1.4 8.1 2.2 8 0.9zm-115.2 4c-0.2-0.3-0.7-0.4-1-0.2-0.4 0.3-0.3 0.5 0.2 0.8 0.9 0.5 1.4 0.2 0.8-0.6zm105.6-5.2c-0.2-0.3-0.6-0.5-1-0.5-0.3 0-0.4 0.3-0.2 0.6 0.2 0.3 0.6 0.5 1 0.5 0.3 0 0.4-0.3 0.2-0.6zm-290.1 10.4c0.2-0.3 1.1-0.7 2-1 0.9-0.2 1.7-0.7 1.7-1 0-0.4-0.6-0.4-1.6-0.1-0.9 0.3-2.4 0.6-3.4 0.9-2.2 0.5-2.5 2-0.4 1.9 0.8 0 1.5-0.3 1.7-0.6zm-33.6 0.5c0-0.1-0.4-0.2-0.9-0.2-0.5 0-0.9 0.3-0.8 0.6 0 0.3 0.4 0.4 0.9 0.2 0.5-0.2 0.8-0.5 0.8-0.6zm23.2-1.5c1-0.8 1-1 0.1-1.8-0.8-0.7-1.2-0.7-2.1-0.2-1.2 0.7-1.5 1.8-0.7 2.6 0.6 0.6 1.5 0.4 2.7-0.6zm39.7-2.9c1-0.8 2.1-1.5 2.5-1.5 1.4-0.1 5.6-2.7 5.2-3.2-0.2-0.4-0.5-0.3-0.8 0.2-0.3 0.6-0.6 0.6-1.3 0.1-1.6-1.2-12.7 3.4-13.3 5.5-0.1 0.5 0.7 0.7 2.8 0.6 2.3-0.1 3.4-0.5 4.8-1.6zm-35.3 0.3c-0.4-0.1-0.9-0.1-1.1 0.1-0.2 0.2 0.2 0.3 0.8 0.3 0.7-0.1 0.8-0.2 0.3-0.4zm221.4-10.5c-1.1-1.5-4.2-2.3-10.5-2.8-2.8-0.2-7.6-1-10.6-1.6-6.3-1.3-6.1-1.3-6-0.6 0 0.6 6.1 2.9 7.4 2.8 0.4 0 0.8 0.2 0.8 0.4 0 0.9 3.3 1.4 9.1 1.5 2.7 0 4.5 0.3 5.1 0.8 0.5 0.4 1.9 0.8 3.2 0.8 2.2 0 2.3-0.1 1.5-1.2zm-38.4 1c-0.8-0.4-2.6-0.8-4-0.9-2.2-0.2-2.4-0.1-1.4 0.5 1 0.6 2.8 0.9 6 1.1 0.5 0 0.2-0.3-0.6-0.7zm10.6-1.4c-2.6-1.1-7.3-1.3-5.2-0.2 1.4 0.7 4.2 1.3 6.1 1.2 1.2 0 1.1-0.2-0.9-1zm-145.1 4.1c0-0.3-0.5-0.6-1.1-0.5-0.6 0-1.3 0.3-1.4 0.6-0.2 0.3 0.3 0.6 1.1 0.5 0.8 0 1.5-0.3 1.4-0.6zm-16.8-2.5c0-0.1-0.4-0.2-0.9-0.2-0.5 0-0.7 0.3-0.5 0.6 0.4 0.5 1.4 0.2 1.4-0.4zm154.7-8.1c-0.9-0.7-3.8-1.2-3.7-0.5 0 0.6 1.3 1 3.2 1 0.7 0 0.9-0.2 0.6-0.5zm-136.3 1.9c0.2-0.3 1.2-0.7 2.4-1 1.1-0.3 2.4-0.8 2.8-1.3 1.3-1.4-0.8-1.5-3.2-0.2-1.2 0.7-2.5 1.3-3 1.3-0.4 0-1.3 0.4-1.9 0.9-1 0.8-1 0.9 0.8 0.8 1 0 2-0.3 2.1-0.6zm-63.3-1.1c2.2-0.9 2.2-0.9-1.7-0.4-4.7 0.6-5.4 0.8-5.4 1.6 0 0.7 3.9 0.1 7.1-1.2zm-7.8-1.4c0-0.1-0.3-0.2-0.6-0.2-0.3 0-0.6 0.3-0.5 0.6 0 0.3 0.3 0.4 0.6 0.2 0.3-0.2 0.6-0.5 0.5-0.6zm13.1 0c0.7-0.2 1.3-0.6 1.3-0.9 0-0.8-2.7-0.5-3.4 0.5-0.8 1-0.1 1.1 2.2 0.4zm-10.8-0.6c0-0.5 0.7-1.2 1.5-1.7 0.8-0.5 1.6-1.3 1.7-1.8 0.1-0.8-0.3-1-2.4-0.9-1.4 0.1-3.7 0.3-5.1 0.6-2.1 0.4-2.6 0.7-2.8 1.8-0.2 1.2 0 1.4 1.3 1.4 2.7 0 2.9 0.1 3.6 0.8 1 0.9 2.2 0.8 2.2-0.2zm-14.4-0.3c0-0.3-0.5-0.6-1.2-0.5-0.6 0-1.1 0.3-1.1 0.6 0 0.3 0.5 0.6 1.2 0.5 0.6 0 1.1-0.3 1.1-0.6zm6.3-0.2c0-0.7-1.6-1.2-2.6-0.7-1.4 0.6-0.9 1.4 0.9 1.3 0.9 0 1.7-0.3 1.7-0.6zm32.6-2.4c1.3-0.2 2.6-0.7 2.8-1 0.5-0.8-7.1 0.4-9.2 1.5-1.7 0.9-1.7 0.9 1.2 0.4 1.6-0.3 4-0.7 5.3-0.9zm-16.3-1.8c-0.2-0.3-0.8-0.5-1.2-0.5-0.5 0-0.8 0.3-0.8 0.6 0 0.3 0.6 0.6 1.2 0.5 0.7 0 1-0.3 0.8-0.6zm3.2-1.2c-0.4-0.1-1.1 0-1.6 0.2-0.8 0.3-0.8 0.5-0.1 0.9 0.5 0.3 1.1 0.2 1.6-0.2 0.5-0.5 0.6-0.8 0.1-0.9zm18.6-2c-0.2-0.3 0-0.6 0.4-0.8 0.4-0.1 0-0.4-0.8-0.5-0.8-0.1-2 0-2.6 0.2-1 0.4-1 0.5 0.4 1 1.9 0.7 3.1 0.7 2.6 0zm8.8-2.3c0-0.3-0.4-0.4-0.9-0.2-0.5 0.2-1.1 0.4-1.5 0.4-0.3 0-0.4 0.3-0.2 0.5 0.4 0.6 2.6 0 2.6-0.8zm-41.4-3.3c3.5-0.5 5.8-1.2 7.5-2.3 1.3-0.8 3-1.6 3.7-1.7 1.8-0.3 2-1.6 0.4-1.9-4-0.7-5.2-0.6-4.8 0.4 0.5 1.4-2.4 2.4-7.9 2.7-4.4 0.2-11.2 2.3-11.1 3.4 0.1 1.3 0.4 1.3 12.3-0.6zm18.3-3.3c0-0.3-1-0.6-2.2-0.7-1.7-0.1-2.2 0.1-2.1 0.8 0 0.7 0.5 0.9 2.2 0.7 1.2-0.1 2.1-0.5 2.1-0.8zm2.3-3.1c0.1-0.5-0.5-0.7-2.1-0.6-1.8 0.1-2.4-0.1-2.6-1-0.3-0.8-0.8-1.1-2.1-1.1-1.8 0.1-2 0.4-1.3 2 0.3 0.6 1.1 0.9 2.5 0.8 1.2 0 2.5 0.2 3 0.4 1.1 0.7 2.4 0.4 2.7-0.6zm652.8-29.6c0.4-0.6 0.7-1.2 0.6-1.5-0.3-0.8 1.4-1.6 3.4-1.7 1.2-0.1 2.2-0.5 2.8-1.3 0.5-0.7 1.3-1.2 1.7-1.2 0.4 0 0.9-0.4 1.1-1 0.2-0.5 0.9-1.2 1.7-1.5 0.8-0.3 1.3-0.9 1.1-1.3-0.4-1-3.4-0.4-4.3 0.7-0.4 0.6-1.2 0.8-2.1 0.7-0.9-0.1-1.9 0.2-2.6 0.9-0.6 0.6-1.7 1.3-2.4 1.5-1.4 0.5-4.4 3.8-4.6 5-0.2 2 2.2 2.4 3.6 0.6zm-675 27.6c0.5-0.7 0.4-0.8-0.8-0.4-0.8 0.2-1.7 0.5-2.1 0.5-0.4 0-0.7 0.3-0.7 0.6 0 0.8 2.9 0.3 3.6-0.7zm-39.9-13.1c-0.7-0.8-3.4-0.9-3.4-0.1 0 0.9 0.7 1.1 2.4 1 1.3-0.1 1.5-0.3 1-0.9zm-25.1-9.5c-1.2-0.7-2.5-0.6-2 0.1 0.2 0.3 0.9 0.5 1.6 0.5 1-0.1 1.1-0.2 0.4-0.6zm-9.8-1.4c-2.1-0.5-2.9-0.5-2.9 0.1 0 0.6 2.9 1 3.8 0.5 0.3-0.2-0.1-0.5-0.9-0.6zm13-1.3c0.7-0.8-0.6-1.2-3.1-0.9-0.8 0.1-1.2 0.4-0.9 0.9 0.3 0.8 3.3 0.8 4.1 0zm4.5 0c-0.2-0.3-1.2-0.5-2.2-0.4l-1.8 0.1 1.7 0.4c2.5 0.5 2.7 0.5 2.3-0.1zm26.4-9.2c0-0.3-0.3-0.6-0.6-0.5-0.3 0-0.6 0.3-0.5 0.6 0 0.3 0.3 0.6 0.6 0.5 0.3 0 0.6-0.3 0.5-0.6zm-34.9-9.4c0.7-0.1 0.6-0.3-0.3-0.9-1.3-0.9-5.9-0.9-7.2 0-0.6 0.4-0.4 0.6 0.9 0.9 0.9 0.2 2 0.4 2.3 0.4 0.3 0.1 1.2 0 2-0.1 0.8-0.1 1.8-0.3 2.3-0.3zm7.5-0.3c0.5-0.3 0.7-0.6 0.5-0.6-0.2 0-1.5-0.1-3-0.2-2.2-0.1-2.7 0-2.7 0.7 0 1 3.8 1.1 5.2 0.1zm782.2-54.2c-0.2-0.3-0.1-0.7 0.2-0.9 0.9-0.6 0.6-1.5-0.3-1.4-0.5 0-0.8 0.6-0.8 1.5 0 0.8 0.3 1.4 0.7 1.4 0.3 0 0.4-0.3 0.3-0.5zm62.4-4.2c0.4-1.1-0.1-1.1-1.9 0.1l-1.4 0.9 1.5 0c0.8 0 1.7-0.4 1.8-0.9zm-2.6-6c0.9-0.5 1.7-0.5 2.4-0.2 2.4 1.2 8-1.9 10-5.6l1-1.8-2.9 0.5c-1.7 0.3-3.4 1-4.1 1.7-0.7 0.7-1.7 1.3-2.2 1.3-0.6 0-1.2 0.3-1.3 0.6-0.2 0.3-0.5 0.5-0.8 0.3-0.3-0.1-1.4 0.7-2.6 1.8-2.2 2.1-1.9 2.6 0.6 1.4zm-853.3 33c0.1-0.1-0.2-0.6-0.6-1.1-0.5-0.7-1.9-1-4.2-1.1-3.3-0.2-3.4-0.1-2.6 0.9 1.7 2.1 2.6 2.4 5 1.9 1.3-0.3 2.4-0.5 2.5-0.6zm-8.6-32.8c-0.6-0.6-1.8-0.1-1.8 0.8 0 0.7 2 1 2.2 0.3 0.1-0.3-0.1-0.8-0.4-1.1zm-0.8-2.3c0-0.8-1.3-2.9-2-3.3-1.9-1.2-3.6 1.7-1.9 3.3 1.5 1.3 3.9 1.4 3.9 0.1zm-4.1-6.2c-1-1.7-2-1.6-1.9 0.2 0 1 0.8 1.5 2.2 1.5 0.5 0 0.4-0.5-0.2-1.6zm831.7-39.9c0-0.5-0.3-0.9-0.6-0.8-0.3 0-0.6 0.4-0.5 0.9 0 0.5 0.3 0.9 0.6 0.8 0.3 0 0.6-0.4 0.5-0.9zm-392.6-4.6c1.1-0.3 3.3-0.8 4.8-1 1.6-0.2 3.1-0.8 3.5-1.3 0.7-1 2.1-1.1 3.7-0.4 1 0.5 9-0.6 9.6-1.3 0.1-0.1-0.1-0.7-0.6-1.2-0.7-0.8-2.3-0.8-14.3 0-7.4 0.5-14.9 1.1-16.7 1.4-3 0.4-7.4 2.2-7.3 2.9 0 0.2 1.5 0.7 3.4 1.1 3.6 0.8 10.7 0.6 13.9-0.3zm31.5-4.4c1.5-0.3 2.8-1.1 2.6-1.5-0.8-1.2-10.7 0.3-10.6 1.6 0 0.6 2.9 0.9 5.2 0.4 1.1-0.2 2.4-0.5 2.9-0.6zm-466.6 16.2c-0.1-4.4-0.7-7-1.4-7-0.3 0-0.4 0.3-0.2 0.6 0.2 0.3 0 0.6-0.5 0.6-0.9 0-1.7 1.6-0.9 1.9 0.3 0.1 0.7 1.1 0.9 2.2 1.1 5.8 2.3 6.8 2.1 1.8zm575.3-23.7c1.4-0.7 2-0.7 3.6-0.1 1.6 0.6 2.7 0.5 6-0.1 2.3-0.5 7.2-1.1 10.9-1.4 3.7-0.3 7.2-0.8 7.7-1.1 0.5-0.3 4.3-0.7 8.4-0.9 4.1-0.2 8.6-0.7 10-1.1 1.4-0.4 4.1-1 6-1.4 1.9-0.3 3.9-0.9 4.5-1.2 0.6-0.4 3.1-1.1 5.5-1.6 2.7-0.6 4.4-1.2 4.4-1.6 0-0.8-11.6 0.1-12.1 1-0.2 0.3-3.6 0.8-7.7 1.1-7.6 0.6-20.2 2.2-21 2.8-0.2 0.2-4 0.6-8.5 0.9-4.4 0.3-8.6 0.8-9.3 1.1-0.7 0.3-2.8 0.6-4.7 0.8-1.9 0.2-4.1 0.7-5 1.2-0.8 0.5-1.9 0.9-2.4 0.9-1.1 0-1.1 1-0.1 1.4 1.1 0.4 1.8 0.3 3.6-0.6zm-86-0.1c0-0.3-0.3-0.6-0.6-0.5-0.3 0-0.6 0.3-0.5 0.6 0 0.3 0.3 0.6 0.6 0.5 0.3 0 0.6-0.3 0.5-0.6zm19.2-0.6c4.4-0.7 1.8-1.4-3.4-0.9-2.5 0.2-5.7 0.5-7.1 0.7-1.4 0.1-2.1 0.4-1.7 0.6 0.9 0.5 8.3 0.3 12.2-0.4zm5.2-0.4c0.2-0.3-0.3-0.6-1-0.5-1.1 0.1-1.2 0.2-0.4 0.6 1.1 0.6 1 0.6 1.4-0.1zm-174.2 2.3c3-1.7 3.2-2.9 0.4-2.8-1.9 0.1-5.4 2.5-5.3 3.7 0 0.9 2.4 0.5 4.9-0.9zm310.3-13.4c0.6-0.4 0.5-0.6-0.5-0.9-1.3-0.4-2.4 0.1-2.3 1 0 0.7 1.8 0.6 2.8-0.1zm210-10.1c0.5-0.8 1.4-2 1.9-2.7 0.5-0.6 1-1.3 0.9-1.4 0-0.6-3.1-0.1-4 0.7-0.7 0.7-3.6 1.5-6 1.7-0.3 0-0.4 0.2-0.1 0.4 0.2 0.2 0.1 0.8-0.1 1.4-0.6 1.2 0.1 1.5 1 0.4 0.4-0.5 0.8-0.4 1.4 0.2 1.3 1.4 3.8 1 4.9-0.8zm-531.4 23c1.1-1 1.1-2.4 0-2.3-1.1 0-3.7 1.4-3.7 1.9 0 0.7 1.3 1.6 2.1 1.4 0.4-0.1 1.1-0.5 1.6-0.9zm-328.7 12.4c-0.5-0.4-0.7-0.4-0.6 0.3 0 1.1 0.9 1.9 1.1 1 0.1-0.4-0.1-0.9-0.5-1.3zm620.2-26.6c0-0.5-0.4-0.8-0.9-0.8-0.9 0-1.1 0.7-0.4 1.4 0.7 0.6 1.4 0.4 1.3-0.5zm234-18c0-0.3 0.4-0.6 0.9-0.6 1.3-0.1 0.6-1.4-0.9-1.6-1-0.1-1.2 0.2-1.2 1.3 0 0.8 0.3 1.5 0.6 1.5 0.3 0 0.6-0.3 0.5-0.6zm-819.6 32.3c0-0.3-0.3-0.6-0.6-0.5-0.3 0-0.4 0.3-0.2 0.6 0.2 0.3 0.5 0.6 0.6 0.5 0.1 0 0.2-0.3 0.2-0.6zm230.7-11.4c0.1-0.9-0.2-1.9-0.7-2.1-1.2-0.7-1.7-0.5-1.6 0.6 0 0.6-0.2 1.3-0.6 1.7-0.9 0.9 0 2 1.5 1.7 0.9-0.2 1.3-0.7 1.3-1.9zm25.4-0.3c-0.4-0.6-0.9-1.2-1.2-1.4-0.8-0.5-0.7 1.1 0.2 1.9 1.1 1 1.7 0.7 1-0.5zm-260.3 9.2c-1.5-0.9-2.2-0.5-1.1 0.7 0.4 0.4 1.1 0.6 1.6 0.4 0.7-0.3 0.6-0.5-0.4-1.2zm14.6-9.6c1.3 1.2 3.2 0.7 8.5-2.2 2.8-1.5 5.4-2.8 5.8-2.9 1-0.1 2.5-2.7 2-3.4-0.2-0.3-1.1-0.7-2-0.8-0.9-0.1-1.8-0.4-2.2-0.5-0.3-0.2-0.6-0.1-0.6 0.2 0 0.8-3.2 1.5-6.8 1.6-2.3 0.1-3.3 0.3-3.8 1-0.9 1.3-8.8 3-10.8 2.4-1.1-0.4-1.7-0.3-2.1 0.2-0.4 0.5 0 1.1 1.4 2.1 2.3 1.6 8.9 3.2 9.5 2.3 0.2-0.4 0.6-0.3 1.1 0.1zm207.4-10.5c1.6-1.8 1.6-2.1 0.7-3.7-0.9-1.5-0.5-1.8 2.6-2.3 3.4-0.6 4-1.6 2.8-4.8-2.3-6.3-5.3-10.8-10.5-15.5-5.3-4.9-7.4-6.6-8.3-6.6-0.3 0-1-0.5-1.6-1.1-0.6-0.6-1.3-1.1-1.6-1.1-0.3 0-1.5-0.7-2.7-1.5-1.9-1.4-4.8-3-9.5-5.2-0.8-0.4-1.8-0.7-2.1-0.7-0.4 0-2.3-0.7-4.3-1.5-2-0.8-3.9-1.4-4.2-1.2-0.3 0.2-0.8 0.1-1.2-0.2-0.4-0.3-2.4-0.9-4.3-1.4-2-0.5-3.6-1.1-3.7-1.4 0-0.3-0.4-0.3-1 0-0.5 0.3-1.4 0.5-1.9 0.4-2.8-0.4-9-1.7-12.5-2.5-6.8-1.6-11.6-1.9-23.6-1.6-7.8 0.2-12.3 0-14.1-0.4-3.9-1-7-1.2-9.5-0.5-2.8 0.8-3.4 1.4-2.4 2.7 0.7 0.9 2.1 1 14.6 0.6 7.6-0.2 14.9-0.3 16.4-0.2 13.2 0.9 20.5 1.8 23.2 3.1 1.5 0.7 1.7 1 1 1.4-0.5 0.3-1.7 0.3-2.8 0.1-3.4-0.8-8.4-0.9-8.8-0.2-0.5 0.9 1.7 1.5 8 2.3 2.9 0.4 6.4 1.1 7.7 1.7 1.3 0.6 5 2.1 8.2 3.4 3.2 1.3 6.5 2.9 7.4 3.6 0.8 0.7 3.1 2 5 3 1.9 1 4.5 2.6 5.7 3.7 1.2 1.1 4 3.6 6.2 5.5 2.2 1.9 4.5 4.1 5 4.8 1.1 1.5 2.1 1.6 3.1 0.3 1.2-1.6 1.7-1 1.8 2.5 0.1 3.1 0.3 3.5 1.6 4 0.8 0.3 1.6 1.1 1.8 1.7 0.2 0.6 0.9 1.2 1.5 1.4 1.2 0.3 1.4 0.7 1.3 2.7-0.1 1.3 2.5 6.6 3.2 6.5 0.2 0 1.1-0.8 1.8-1.7zm-216.5 3.6c0.9-0.6 1-0.9 0.5-1.8-0.9-1.6-3.4-1.3-3.9 0.3-0.2 0.7-0.2 1.4 0.1 1.5 0.3 0.1 0.4 0.4 0.2 0.7-0.4 0.6 1.6 0.2 3.1-0.7zm4.7-2.7c0.2-0.6-0.2-0.8-1.2-0.7-1.4 0.1-1.4 0.1-0.4 0.8 0.6 0.4 1.2 0.7 1.2 0.7 0.1 0 0.2-0.4 0.4-0.8zm171.7-10.2c0.2-0.4-0.1-1-0.6-1.3-0.5-0.4-1-1-1-1.4 0-0.6 0.2-0.6 1 0 0.9 0.7 0.9 0.6 0.3-0.1-0.4-0.5-1.8-1.4-3.1-2.1l-2.4-1.2-1.4 1.5c-0.8 0.8-1.4 1.7-1.4 2 0 0.3 1 0.9 2.2 1.5 1.2 0.5 2.6 1.1 3.1 1.4 1.3 0.6 2.8 0.5 3.2-0.3zm641.5-30.2c0.7-1 1.2-2 1.2-2.4-0.1-1.2-1.9-0.5-3.5 1.3-1.4 1.5-1.5 1.9-0.9 2.3 1.4 0.8 2 0.5 3.2-1.3zm-635.8 27.2c0.3-1-0.9-0.8-1.2 0.3-0.2 0.6-0.1 0.8 0.4 0.7 0.4-0.1 0.8-0.6 0.9-0.9zm-2.3-1.7c0.4-0.9 0.2-1.3-1.4-2.4-2.7-1.8-9.7-5.2-10.7-5.2-1.3 0.1-0.9 1.1 0.8 2.1 0.9 0.5 2 1.3 2.5 1.9 1.6 1.7 5.1 3.2 5.8 2.4 0.5-0.5 0.6-0.3 0.7 0.9 0.1 1.8 1.5 2 2.3 0.4zm-16.9-0.2c0.2-0.5 0-1.5-0.5-2.2-0.6-1-1.4-1.3-3.8-1.5-3-0.2-6.6 0.7-6.6 1.7 0 0.3 0.6 0.7 1.3 1 1.1 0.4 7 1.6 8.7 1.9 0.2 0 0.6-0.4 0.8-0.9zm-153.6 3c0.9-0.5 0.8-0.5-0.7-0.4-1 0.1-1.9 0.4-1.8 0.6 0 0.6 1.1 0.5 2.6-0.2zm141.4-8.5c-1.5-0.8-6.3-1.1-6.2-0.4 0 0.3-0.4 0.5-1 0.4-0.6-0.2-0.8-0.1-0.3 0.2 0.4 0.3 2.5 0.4 4.6 0.4 2.9 0 3.7-0.2 2.9-0.6zm-120.9-30.2c-1.3-1.2-5.2-3.5-6.1-3.4-0.7 0-0.1 1.4 1.4 3.1 1.4 1.6 2 1.9 3.9 1.8l2.3-0.1-1.5-1.4zm368 332.4c0.6-0.4 1.8-0.9 2.8-1 1-0.2 2.7-0.7 3.9-1.2 1.3-0.6 2.2-0.7 2.5-0.4 0.2 0.3 0 0.6-0.4 0.7-0.4 0.1-1 0.2-1.4 0.2-0.4 0.1-1 0.4-1.4 0.8-0.4 0.4-2.2 0.9-3.9 1.2-2.5 0.4-2.9 0.4-2.1-0.2zm21.1-0.9c0-0.3 0.3-0.6 0.8-0.6 0.5 0 1 0.2 1.2 0.5 0.2 0.3-0.2 0.6-0.8 0.6-0.7 0-1.2-0.2-1.2-0.5zm5.9-5.4c-0.6-0.7-0.5-0.7 0.6-0.4 0.9 0.3 1.4 0.1 1.6-0.6 0.4-1 1.2-1.2 2.5-0.4 0.8 0.5 0.7 0.6-0.2 1.3-1.6 1-3.6 1.1-4.5 0.2zm-97.6 4.1c0.4-0.4 0.8-0.6 1-0.4 0.2 0.2-0.1 0.5-0.7 0.7-0.8 0.3-0.9 0.3-0.3-0.3zm209.4-17.2c-1.3-0.4-1.3-0.6-0.5-1.1 1.3-0.8 4.6 0.2 3.4 1.1-1 0.7-1 0.7-2.9 0zm-211.9 8.8c-0.6-0.3-0.5-0.5 0.1-0.8 0.4-0.2 1.1-0.2 1.5 0.1 0.6 0.3 0.5 0.5-0.1 0.8-0.4 0.2-1.1 0.2-1.5-0.1zm6.7-0.1c0.4-0.2 1-0.2 1.4-0.1 0.4 0.1 0.1 0.3-0.7 0.3-0.8 0-1.1-0.1-0.7-0.3zm-10.8-0.3c-0.8-0.4-0.8-0.5 0.1-0.6 0.5 0 1.1 0.2 1.4 0.5 0.5 0.7-0.3 0.7-1.4 0.1zm39.5-1.7c-1.2-0.6-1.1-2.5 0.2-2.8 1-0.2 3.4 2 3 2.8-0.3 0.6-2 0.6-3.2 0zm-13.3 0.2c-0.6-0.1-1-0.6-1.1-1 0-1 1.9-1.7 3.5-1.3 0.7 0.2 2 0.3 3 0.4 2.3 0 2.8 1.4 0.6 1.5-0.9 0-2.4 0.2-3.3 0.4-0.9 0.2-2.1 0.2-2.7 0.1zm-43 0.6-2-0.3 2.1-0.5c1.6-0.4 2.4-0.3 3.5 0.3l1.4 0.9-1.4 0c-0.8 0-2.3-0.2-3.5-0.3zm265-11.6c-0.2-0.3-0.3-0.7-0.1-0.9 0.1-0.2 0.4 0.1 0.6 0.6 0.4 1 0.1 1.2-0.5 0.3zm3.5-0.3-2.9-0.6 2.4-0.4c2.4-0.4 5.2 0.4 4.4 1.2-0.4 0.5-0.2 0.5-4-0.2zm10.3-0.2c-0.2-0.3 0-0.6 0.5-0.6 0.5 0 0.9 0.2 0.9 0.5 0 0.3-0.2 0.6-0.5 0.6-0.3 0-0.7-0.2-0.9-0.5zm-188.2 6c2.1-1.2 10.8-2.1 10.9-1.1 0 0.5-3.6 1-5.6 0.8-0.4 0-0.7 0.2-0.7 0.5 0 0.3-1.4 0.6-3.3 0.7l-3.3 0.1 2-1.1zm-124.8 4.7c0.4-0.4 0.8-0.6 1-0.4 0.2 0.2-0.1 0.5-0.7 0.7-0.8 0.3-0.9 0.3-0.3-0.3zm156.5-10.2c0.4-0.7-1.3-1.1-3.8-1-1.2 0.1-2.3-0.2-2.3-0.5 0-0.3 0.3-0.6 0.7-0.7 0.4-0.1 1.3-0.2 2-0.3 0.7-0.1 2 0.1 2.8 0.5 0.8 0.4 1.9 0.7 2.3 0.7 1.4-0.1 0.9 1-0.6 1.3-0.8 0.2-1.3 0.1-1.2-0.1zm-439.9 17.5c-0.8-0.2-0.2-0.6 2-1.1 4.3-1.1 9.1-1.7 8.8-1-0.2 0.3-1 0.6-1.7 0.6-0.8 0-1.9 0.3-2.5 0.7-1.4 0.8-5.1 1.3-6.5 0.9zm448.8-23.7c-0.2-0.3-0.3-0.7-0.1-0.9 0.1-0.2 0.4 0.1 0.6 0.6 0.4 1 0.1 1.2-0.5 0.3zm-450 18.5c0-0.2 0.6-0.9 1.3-1.4 1.1-0.8 1.7-0.8 3.4-0.3 1.9 0.6 2 0.7 1.1 1.3-1.1 0.8-5.7 1.1-5.8 0.4zm313.5-14.8c-0.6-0.4-0.3-0.6 1.2-1 2.4-0.6 4.2-0.4 4.2 0.4 0 0.7-4.3 1.2-5.4 0.6zm115.4-10.3c-1.3-0.2-3.5-0.6-4.9-0.9-2-0.4-2.7-0.4-3 0.2-0.3 0.6-0.7 0.6-1.5-0.1-1.7-1.3-3.2-1.7-5.6-1.5-1.5 0.2-2.3 0-2.5-0.6-0.5-1.2-3-1.5-4.2-0.7-0.9 0.6-1.5 0.6-3.3-0.1-3.6-1.3-8.6-2.4-10.6-2.3-1 0-2.4-0.2-3-0.5-1.3-0.6-6.2-1.8-9.4-2.2-3.4-0.4-3-1.2 0.6-1 2.2 0.1 3.8-0.1 4.3-0.5 0.8-0.7 3-0.4 5.9 1 1 0.5 2.7 0.8 3.8 0.8 1.1 0 3.1 0.1 4.3 0.4 3.7 0.8 3.9 0.8 6.2 0.2 1.2-0.3 2.3-0.3 2.5-0.1 0.5 0.7 5.4 1 6.5 0.3 0.6-0.3 1.3-0.4 1.6-0.2 0.3 0.2 1.9 0.8 3.5 1.3 1.6 0.5 3.5 1.2 4.1 1.6 0.7 0.4 2.1 0.8 3.2 1 1.1 0.2 2.7 0.8 3.5 1.3 0.8 0.5 2.4 1.1 3.5 1.3 1.1 0.2 2.4 0.5 2.9 0.8 1.1 0.6-5.1 0.8-8.3 0.3zm-374.2 15.2c0-0.7 0.4-0.9 2.4-1.5 2.2-0.6 2 0.4-0.2 1.3-2.2 0.9-2.2 0.9-2.2 0.2zm271.3-13.8-2.3-0.6 1.8-0.7c1.5-0.6 2-0.5 3.5 0.6 1.5 1.1 1.6 1.3 0.6 1.3-0.6 0-2.2-0.2-3.5-0.6zm21.2-0.7c-0.7-0.2-1.4-0.7-1.6-1-0.2-0.3-0.9-0.4-1.5-0.2-0.7 0.2-1.1 0.1-1.2-0.4 0-0.5 0.6-0.6 1.7-0.5 1 0.1 1.7 0 1.7-0.2 0-0.7 5.2-1.8 7.5-1.6 1.4 0.1 2.3-0.1 2.9-0.8 1.5-1.6 3.8-1.2 4.7 0.8 0.3 0.8 0.1 1.1-0.8 1.4l-1.3 0.4 1.4 0.3c1.7 0.3 2.3 1.5 0.8 1.4-0.6 0-1.3-0.2-1.6-0.4-0.8-0.4-4.1-0.1-4.6 0.5-0.6 0.6-6.5 0.8-8.1 0.2zm2.1-1c-0.8-0.9-2.3-1.1-2.3-0.2 0 0.5 1.1 0.9 2.6 1 0.3 0 0.2-0.3-0.2-0.8zm-11.6 0.8c-2.1-0.1-3.2-0.4-2.9-0.8 0.2-0.3 1-0.7 1.8-0.8 0.8-0.1 1.6-0.5 1.8-0.9 0.3-0.6 0.5-0.6 0.5 0 0 0.4 0.5 0.7 1.1 0.7 1.1 0 2.2 1.4 1.4 1.8-0.2 0.1-1.9 0.1-3.7 0zm28.3-1.2c0-0.7 1.1-0.8 2.3-0.1 0.7 0.4 0.5 0.5-0.7 0.6-0.9 0-1.6-0.2-1.6-0.5zm-42-0.8-2-0.6 2.4-0.1c1.3-0.1 2.6 0.1 2.7 0.3 0.6 0.8-1.1 1-3.2 0.4zm11.4-1.6c0-0.6 1.1-0.9 1.4-0.4 0.2 0.3 0 0.6-0.5 0.6-0.5 0-0.9-0.1-0.9-0.2zm-336.8 10.3c-2.8-0.8-2.9-0.9-1.3-1 1-0.1 2.5 0.1 3.3 0.3 1.8 0.6 4.9-0.5 4.9-1.7 0-0.6 0.4-0.8 2.1-0.5 1.2 0.2 2.6 0.5 3.1 0.7 1 0.5 0.9 0.6-3.4 1.9-3.8 1.2-5.3 1.2-8.7 0.3zm305.1-13.3c-1.3-2 0.4-4.3 2.4-3.1 0.6 0.3 0.7 1.6 0.4 3.7-0.1 0.9-2.1 0.5-2.9-0.6zm-230.4 10.1c0-0.3 0.4-0.7 0.9-0.9 1.5-0.7 2.1-0.5 1.2 0.5-0.9 1-2 1.2-2.1 0.4zm647.2-29.4c-1.2-0.7-0.3-1.8 1.6-1.9 1.5-0.1 2.8 0.7 2.3 1.3-0.5 0.6-3.1 1-3.8 0.5zm-423.4 16.7c0-0.3 0.2-0.6 0.5-0.6 0.3 0 0.7 0.2 0.9 0.5 0.2 0.3 0 0.6-0.5 0.6-0.5 0-0.9-0.2-0.9-0.5zm443.6-20.5c1.2-0.7 2.7-1.3 3.4-1.3 1.1 0 1.1 0-0.1 1.2-0.8 0.7-2.2 1.2-3.4 1.3l-2.1 0.1 2.2-1.2zm-395.1 16.6c-2.2-0.5-4.7-0.9-5.5-0.9-3.1 0.1-0.1-1.1 3.9-1.5 4.1-0.4 4.3-0.4 6.4 1.4 2.1 1.8 2.1 1.8 0.7 1.8-0.8 0-3.3-0.4-5.5-0.9zm-334.6 15.1c-0.5-1.3-0.5-4.5 0-4.9 0.3-0.2 0.5-0.1 0.3 0.2-0.2 0.3 0.3 0.8 1.2 0.9 1.5 0.3 1.5 0.4 0.6 1.1-0.5 0.4-1 1.1-0.9 1.4 0 0.6-1 1.6-1.2 1.2zm716.2-31.8c-0.7-0.5-0.6-0.5 0.4-0.3 0.7 0.1 1.3 0 1.3-0.3 0-0.3 0.2-0.4 0.6-0.2 0.3 0.2 0.6 0.1 0.6-0.2 0-0.3 0.3-0.5 0.7-0.6 0.9-0.1 3-0.7 4.4-1.2 0.6-0.2 1.2-0.1 1.5 0.3 0.6 0.9-0.9 1.8-1.8 1.1-0.8-0.6-2.1-0.1-1.7 0.6 0.1 0.2-0.4 0.4-1.3 0.5-0.8 0-2 0.3-2.7 0.5-0.6 0.2-1.5 0.2-2-0.1zm-2.9-0.4c0-0.3 0.4-0.6 0.8-0.6 0.5 0 0.9 0.2 0.9 0.5 0 0.3-0.4 0.6-0.8 0.6-0.5 0-0.9-0.2-0.9-0.5zm-725 30.5c-0.2-0.3-1.4-0.6-2.7-0.8-1.7-0.2-2.3-0.6-2.4-1.4-0.1-1.9 1.7-2.4 3.7-1 2.3 1.6 5 2.2 5 1.2 0-0.4 0.1-0.6 0.3-0.4 0.2 0.2 0.2 0.9 0 1.5-0.2 0.9-0.8 1.2-2 1.3-0.9 0-1.8-0.2-2-0.4zm334.3-14.4c-0.2-0.2-0.3-0.6-0.1-0.8 0.3-0.6 2-0.1 2 0.6 0 0.6-1.3 0.8-1.9 0.2zm21.3-1.4c-1.4-0.5-2.7-0.5-3.8-0.1-1.4 0.5-1.7 0.4-2-0.5-0.4-1.2 0.8-1.9 1.8-1 0.4 0.3 1.7 0.5 3 0.4 2.2-0.3 4 0.4 4.1 1.5 0 0.6-0.4 0.6-3-0.2zm-336.7 14.4c-1-0.3-1.1-0.4-0.2-0.8 0.5-0.2 1.5-0.4 2.2-0.3 1.1 0.1 1.2 0.2 0.2 0.8-0.6 0.4-1.5 0.5-2.2 0.3zm729-31.7c0-0.3 0.5-0.7 1.1-0.9 0.7-0.2 1.1-0.1 1 0.3-0.2 0.8-2.1 1.4-2.1 0.6zm-420.2 17.5c-0.6-0.8 0-1 1.8-0.6 1.9 0.5 1.8 0.5-0.2 0.9-0.7 0.1-1.5 0-1.7-0.3zm34.5-2c-0.2-0.3-0.3-0.7-0.1-0.9 0.4-0.5 4.4 0.2 4.5 0.8 0 0.7-3.8 0.8-4.3 0.1zm388.5-17.3c0-1.9 7.2-5.3 7.3-3.5 0 0.8-1.2 1.9-2.2 1.9-0.5 0-1.6 0.5-2.5 1-1.8 1-2.6 1.2-2.6 0.5zm-413 15.2c-4.9-1.1-5.1-1.2-3.7-1.8 0.7-0.3 1.9-0.4 2.6-0.2 0.7 0.2 1.9 0.3 2.7 0.2 1.7-0.2 4.8 1.1 4.4 1.9-0.4 0.8-2.2 0.7-6-0.1zm-329.1 14c-0.1-1.9 3.6-3.7 7.5-3.7 2.2 0 0.8 1.9-2.1 2.8-1.6 0.5-3.4 1.1-4.1 1.3-0.9 0.3-1.3 0.2-1.3-0.5zm155.3-6.6c-0.2-0.3 0-0.6 0.5-0.6 0.5 0 1 0.2 1.2 0.5 0.2 0.3 0 0.6-0.5 0.6-0.5 0-1-0.2-1.2-0.5zm-179.8 5.8c-0.2-0.5-0.4-1.5-0.4-2.2 0-0.7-0.4-1.5-0.7-1.9-1.5-1.3 0.1-1.8 5.9-1.8 10 0 13.1-0.4 20.2-2.2 9.7-2.5 10-2.5 10-1.9 0 0.3-0.9 0.9-2.1 1.4-1.2 0.4-3.1 1.8-4.3 3-1.2 1.2-2 1.9-1.8 1.5 0.7-1.4-5.6-1.3-7.4 0.1-0.7 0.6-3.4 1.1-10.2 2.2-2.8 0.4-5.7 1.2-6.4 1.7-1.6 1.2-2.2 1.2-2.7 0.1zm762-34c-0.6-0.2-1.9-0.3-2.8-0.1-2.9 0.5-0.7-1.4 2.3-2 3.2-0.7 2.7-0.5 5.8-1.6 1.4-0.5 2.7-0.9 3-0.8 0.2 0 0.4-0.1 0.4-0.4 0-0.9 1.8-1.4 5.5-1.7 2-0.2 3.9-0.6 4.3-0.9 0.4-0.3 1.8-1 3.1-1.4 1.3-0.4 3-1.4 3.8-2.2 0.7-0.8 1.7-1.5 2.2-1.5 0.4 0 1.1-0.5 1.5-1 0.4-0.6 1.3-0.9 2.1-0.7 0.9 0.1 1.5-0.1 1.7-0.7 0.7-2.3 10-10.3 12-10.4 0.5 0 1.1-0.4 1.3-0.8 0.5-1 4.6-3.1 5.1-2.7 0.4 0.4-2.6 3.3-3.4 3.4-0.3 0-1.5 1-2.6 2.1-1.1 1.2-2.3 2.1-2.6 2.1-0.3 0-1.4 0.8-2.3 1.8-0.9 1-2.4 2-3.3 2.2-0.9 0.2-1.7 0.7-1.9 1.1-0.3 0.9-5.7 5.1-10.9 8.5-2 1.3-4.2 2.9-4.8 3.6-0.9 0.9-2 1.2-4.3 1.3-2 0.1-4.3 0.7-6.5 1.7-3.5 1.6-6.3 2-8.5 1.3zm-403.5 16.7c-1.1-0.3-2.8-0.9-3.6-1.4-0.8-0.5-2.6-1-3.9-1-3.2-0.2-4.5-1.3-1.6-1.4 1.2 0 2.3-0.3 2.4-0.4 0.2-0.2 1.2 0.2 2.3 0.8 1.5 0.9 2.5 1 4.3 0.7 1.2-0.3 2.3-0.3 2.3 0 0 0.2 0.2 0.8 0.3 1.4 0.4 1.6-0.3 2.1-2.5 1.5zm-315.6 11.9c-1-0.1-2.1-0.5-2.6-0.8-0.7-0.5-0.5-0.7 0.8-1.1 0.9-0.3 2.2-0.7 2.9-0.9 0.9-0.3 1.3-0.2 1.7 0.7 0.2 0.7 0.8 1.2 1.2 1.2 0.4 0 1 0.2 1.2 0.5 0.4 0.6-1.8 0.7-5.2 0.4zm8.1-0.4c-0.5-0.8 1.5-2 2.7-1.6 0.9 0.3 1.3 1.3 0.5 1.4-0.2 0-1 0.2-1.6 0.4-0.7 0.2-1.4 0.1-1.6-0.2zm-60.6-8.6c0-0.5 0.7-1 1.5-1.2 0.9-0.2 2.8-0.8 4.3-1.4 1.5-0.6 4.5-1.2 6.5-1.5 2.1-0.3 4.8-0.9 6-1.4 1.2-0.5 3.8-1 5.7-1.1 1.9-0.1 4.7-0.5 6.1-0.9 1.9-0.5 3.1-0.6 4.7-0.1 2.7 0.8 2.3 1.6-0.8 1.7-6 0.3-28.1 4.4-31 5.7-2.4 1.1-3.1 1.2-3.1 0.1zm-9.5-3.2c-0.3-0.5 0.7-1.5 1.8-1.8 0.6-0.2 0.5 0.1-0.2 1-1.1 1.4-1.2 1.4-1.6 0.8zm-2.5-0.4c0.2-0.2 0.7-0.2 1.1-0.1 0.5 0.2 0.3 0.3-0.3 0.4-0.6 0.1-0.9-0.1-0.8-0.3zm59.6-3.5c-2-0.6-1.3-1 1.1-0.6 1.3 0.2 1.7 0.5 1.2 0.7-0.5 0.2-1.5 0.2-2.2-0.1zm-8.3-11.9c-0.4-1 0.6-1.8 1.4-1.1 0.4 0.3 0.3 0.8-0.2 1.2-0.6 0.6-0.9 0.5-1.2-0.1zm7.3-1.1c0.2-0.2 1.1-0.5 2-0.6 0.9-0.1 3-0.4 4.6-0.7 2.4-0.4 2.9-0.4 2.9 0.4 0 0.8-0.8 0.9-4.9 1.1-2.7 0.1-4.8 0-4.6-0.2zm783.6-35.4c0-0.3 0.2-0.7 0.5-0.9 0.3-0.2 0.6 0 0.6 0.5 0 0.5-0.2 0.9-0.5 0.9-0.3 0-0.6-0.2-0.6-0.5zm3.9-3.4c1.4-1.7 2.2-1.9 2.3-0.7 0 1-0.6 1.5-2.3 1.9-1.2 0.3-1.2 0.3 0-1.2zm-783.6 33.9c0.2-0.3 0.7-0.6 1.2-0.6 0.5 0 0.8 0.2 0.9 0.5 0 0.3-0.5 0.6-1.2 0.6-0.7 0-1-0.2-0.9-0.5zm-9.3 0c0.6-0.6 3.8-0.9 3.8-0.3 0 0.3-0.9 0.6-2.1 0.6-1.2 0.1-1.9-0.1-1.7-0.3zm795.7-35.5c0-0.6 1.8-2.1 4.1-3.2 2.8-1.4 2.9-1.4 1 0.8-0.9 1.1-1.6 2.1-1.6 2.3 0 0.2-0.8 0.4-1.7 0.4-0.9 0-1.7-0.2-1.7-0.4zm-784.6 30.2c0-0.3 0.4-0.4 0.9-0.3 0.5 0.2 0.9 0.4 0.9 0.5 0 0.1-0.4 0.2-0.9 0.3-0.5 0-0.9-0.2-0.9-0.5zM921.7 484.7c-0.2-0.3 0-0.6 0.5-0.6 1 0 1.2 0.3 0.4 0.8-0.3 0.2-0.7 0.1-0.9-0.2zm3.5-2.3c-0.7-0.7-0.5-1.2 0.7-1.6 0.9-0.3 1.1-0.1 1 0.6-0.2 1-1.1 1.6-1.8 1zm-797.9 34.2c0.2-0.2 0.7-0.2 1.1-0.1 0.5 0.2 0.3 0.3-0.3 0.4-0.6 0.1-0.9-0.1-0.8-0.3zm-61.7-20c-0.4-0.6 1.1-0.7 3.2-0.1 1.3 0.4 1.2 0.4-0.7 0.5-1.2 0.1-2.3-0.1-2.5-0.4zm-15.1-4.9c-0.9-0.8-0.4-1.3 1.3-1.4 1.1 0 1.7 0.2 1.8 0.8 0 0.9-2.3 1.3-3 0.6zm4.2-1.5c0.5-0.3 1.4-0.6 2-0.6 1 0 1 0.1 0.3 0.5-0.5 0.3-1.4 0.6-2 0.6-1 0-1-0.1-0.3-0.5zm886.6-41.2c-0.7-0.7-0.4-1.5 0.6-1.6 0.3 0 0.4 0.2 0.2 0.6-0.2 0.3-0.1 0.6 0.3 0.6 0.3 0 0.6 0.2 0.6 0.5 0 0.8-0.9 0.7-1.7-0.1zm-854.9 9.2c-1.4-1.3-1.6-1.8-1-2.2 0.4-0.3 1.2-0.5 1.8-0.4 0.6 0.1 1.1 0 1.3-0.3 0.4-0.7 2.4-0.8 2.8-0.1 0.6 0.9-0.2 2.9-1 2.8-0.4-0.1-1.1 0.3-1.5 0.9-0.6 0.9-0.9 0.8-2.5-0.7zm-19.1-54.9c-0.2-0.3-0.1-0.6 0.2-0.6 0.3 0 0.6 0.2 0.6 0.5 0 0.3-0.1 0.6-0.2 0.6-0.1 0-0.4-0.2-0.6-0.5zm-0.6-38.9c0.1-0.7-0.1-1.4-0.5-1.5-0.5-0.2-0.5-0.3 0-0.3 1-0.1 1.3 0.6 0.8 1.9-0.4 1.1-0.5 1.1-0.3-0.1zm298.8-17.4c-0.1-1.7 0-1.8 0.9-0.9 0.5 0.5 0.8 1.3 0.7 1.8-0.5 1.6-1.5 1.1-1.6-0.9zm280.6-11c0.2-0.3 1.4-0.6 2.7-0.7 1.8-0.1 2.2 0.1 1.6 0.5-1.1 0.8-4.7 1-4.3 0.2zm7.2-0.8c0-0.3 0.3-0.6 0.7-0.6 0.4 0 1.3-0.3 2.1-0.6 1-0.4 1.3-0.3 1.1 0.3-0.3 0.9-3.8 1.7-3.9 0.8zm-139 5.4c0-0.3 0.4-0.6 0.8-0.6 0.5 0 0.9 0.2 0.9 0.5 0 0.3-0.4 0.6-0.8 0.6-0.5 0-0.9-0.2-0.9-0.5zm4.9-0.2c-1.6-0.3-1.4-0.4 1.3-0.8 3.2-0.5 4.8-0.3 3.5 0.6-0.9 0.6-2.3 0.7-4.8 0.2zm142.1-5.9c0-0.1 0.2-0.4 0.5-0.6 0.3-0.2 0.6-0.1 0.6 0.2 0 0.3-0.2 0.6-0.5 0.6-0.3 0-0.6-0.1-0.6-0.2zm-135.6 4.2c0-0.1 0.4-0.4 0.9-0.6 0.5-0.2 0.7-0.1 0.6 0.2-0.3 0.6-1.4 0.9-1.4 0.4zm7.7-1.2c-0.4-0.7 0.1-0.9 2.2-1.3 3.6-0.5 5.7-0.5 5.8 0 0 0.3-0.5 0.6-1.2 0.7-0.7 0-1.4 0.3-1.7 0.5-0.6 0.6-4.7 0.7-5.1 0.1zm-471.5 18.5c-0.2-0.5 0-0.9 0.5-0.9 0.9 0 1.2 0.8 0.4 1.4-0.3 0.2-0.7 0-0.9-0.5zm495.8-22.5c0-0.3 0.2-0.6 0.5-0.6 0.3 0 0.6 0.2 0.6 0.5 0 0.3-0.2 0.6-0.5 0.6-0.3 0-0.6-0.2-0.6-0.5zm34.6-3.6c-0.7-0.4-1.9-0.8-2.8-0.8-0.9 0-1.6-0.2-1.6-0.5 0-0.8 3.8-1.7 10.5-2.4 2.5-0.3 4.7-0.5 4.9-0.6 2.2-0.3 2.1 0.7 0 1.1-0.7 0.1-1.5 0.5-1.8 0.8-0.3 0.3-1.3 0.6-2.1 0.7-0.9 0-1.6 0.4-1.6 0.7 0 0.4-0.5 0.5-1.4 0.3-1-0.2-1.6 0-1.8 0.6-0.4 1.1-0.7 1.1-2.3 0.1zm15.4-4.3c0.3-0.4 2.2-0.9 4.1-1.1 1.9-0.2 3.7-0.5 4-0.7 0.7-0.4 21.6-1.3 21.2-0.9-0.5 0.6-0.9 0.6-12.2 1.5-5.6 0.4-11.9 1-13.9 1.3-2.8 0.4-3.6 0.3-3.1-0.2zm-538.3 23c-1.6-0.2-1.7-1-0.2-1.5 0.8-0.2 1.4 0 1.8 0.7 0.3 0.6 0.4 1 0.2 1-0.2 0-1-0.1-1.8-0.3zm605.1-26.9c-0.6-0.6-0.6-0.8 0.1-0.8 0.4 0 1.1 0.2 1.6 0.4 0.6 0.4 0.6 0.5-0.1 0.8-0.5 0.2-1.2 0-1.6-0.4zm-313.5 13.4c-0.7-0.4-0.7-0.6-0.2-1.2 0.5-0.6 0.8-0.6 1.4-0.1 0.5 0.4 0.5 0.9 0.2 1.2-0.3 0.4-0.9 0.4-1.4 0.1zm276.8-12.1c0-0.2 1-0.5 2.3-0.5 1.3-0.1 2.2 0.1 2 0.4-0.3 0.6-4.3 0.8-4.3 0.1zm8.6-0.4c0-0.3 0.9-0.5 2.1-0.6 2.5-0.1 2.3 0.4-0.3 0.8-1 0.2-1.8 0.1-1.8-0.2zm-3-0.2c0.4-0.2 1-0.2 1.4-0.1 0.4 0.1 0.1 0.3-0.7 0.3-0.8 0-1.1-0.1-0.7-0.3zm44.4-2.2c0-0.6 4.9-1.5 5.7-1 1.5 0.8 0.5 1.5-2.5 1.5-1.7 0-3.2-0.2-3.2-0.4zm-626.4 23.8c-1.6-0.8-3.4-2.5-4.8-4.4-1.2-1.7-0.5-2.1 1-0.5 0.6 0.6 1.7 1.2 2.6 1.3 1 0.2 1.9 0.8 2.3 1.7 1.3 2.6 1 3.1-1.2 2zm44.9-35.8c-0.1-0.9 0.1-1.1 0.7-0.9 0.5 0.2 1.3 0.3 1.7 0.3 0.4 0 0.8 0.4 0.9 0.8 0 0.6-0.5 0.9-1.6 0.9-1.2 0.1-1.6-0.2-1.7-1.1zm9.2-3.2c-0.2-0.3 0.2-0.6 1.1-0.6 0.8 0 1.6 0.2 1.8 0.5 0.2 0.3-0.2 0.6-1.1 0.6-0.8 0-1.6-0.2-1.8-0.5zm873.2-38.7c0-0.3 0.1-0.6 0.2-0.6 0.1 0 0.4 0.2 0.6 0.5 0.2 0.3 0.1 0.6-0.2 0.6-0.3 0-0.6-0.2-0.6-0.5zm-616 22.9c-1.2-1.1-1.6-1.9-1.3-2.7 0.3-0.9 0.6-0.7 1.8 1.2 2.3 3.4 2.1 4-0.5 1.5zm-254 11.8c-0.4-0.1-0.6-0.5-0.4-0.8 0.3-0.6 2-0.2 2 0.6 0 0.6-0.4 0.6-1.6 0.2zm232.4-30.4c-0.5-0.7 0.6-1.4 1.4-1 0.7 0.4 0.3 1.4-0.5 1.5-0.3 0-0.7-0.2-0.9-0.5zm-42.7-2.8c-0.2-0.3-0.1-0.6 0.2-0.6 0.3 0 0.6 0.2 0.6 0.5 0 0.3-0.1 0.6-0.2 0.6-0.1 0-0.4-0.2-0.6-0.5zm-2.6-0.4c0-0.3 0.2-0.6 0.5-0.6 0.3 0 0.6 0.1 0.6 0.2 0 0.1-0.2 0.4-0.5 0.6-0.3 0.2-0.6 0.1-0.6-0.2zm-1.4-0.4c-0.2-0.2-0.4-0.6-0.4-1 0-0.4 0.3-0.3 0.7 0.1 0.4 0.4 0.6 0.8 0.4 1-0.2 0.2-0.5 0.1-0.7-0.1zm-174.4 6.4c1.4-0.9 4-1.5 4-0.9 0 0.3-0.2 0.6-0.5 0.6-0.3 0-1.4 0.2-2.4 0.4-1.3 0.3-1.7 0.2-1.1-0.2zm-20.2-1.5c-6.8-0.2-5.3-1.2 2.4-1.6 3.9-0.2 7-0.6 7.1-1 0.6-1 2.5-1.1 3.9-0.2l1.3 0.8-1.3 0.8c-1.5 0.9-6.9 1.4-13.5 1.2zm-5.3-7.2c-0.6-0.5-0.2-1.2 0.6-1.2 0.5 0 0.9-0.4 0.9-0.8 0-0.6 0.1-0.6 0.3 0 0.2 0.4 0.6 0.6 0.8 0.4 0.3-0.2 0.5 0.2 0.6 0.8 0 0.8-0.3 1.1-1.4 1.1-0.8 0-1.6-0.1-1.7-0.2zm0.3-4.4c0.2-0.2 0.7-0.2 1.1-0.1 0.5 0.2 0.3 0.3-0.3 0.4-0.6 0.1-0.9-0.1-0.8-0.3z" fill="#e6ac00"/></svg>
