<?xml version="1.0" encoding="UTF-8"?>
<!DOCTYPE svg PUBLIC "-//W3C//DTD SVG 1.1//EN" "http://www.w3.org/Graphics/SVG/1.1/DTD/svg11.dtd">
<!-- Creator: CorelDRAW X8 -->
<svg xmlns="http://www.w3.org/2000/svg" xml:space="preserve" width="210mm" height="297mm" version="1.1" style="shape-rendering:geometricPrecision; text-rendering:geometricPrecision; image-rendering:optimizeQuality; fill-rule:evenodd; clip-rule:evenodd"
viewBox="0 0 21000 29700"
 xmlns:xlink="http://www.w3.org/1999/xlink">
 <defs>
  <style type="text/css">
   <![CDATA[
    .str0 {stroke:black;stroke-width:200}
    .str1 {stroke:black;stroke-width:250}
    .fil0 {fill:none}
    .fil2 {fill:black}
    .fil1 {fill:white}
   ]]>
  </style>
 </defs>
 <g id="Warstwa_x0020_1">
  <metadata id="CorelCorpID_0Corel-Layer"/>
  <g id="_3052333733632">
   <polygon class="fil0 str0" points="171,14354 1782,12743 10463,21424 19140,12748 20745,14353 10458,24641 170,14353 "/>
   <g>
    <g>
     <path class="fil1" d="M1086 15167l612 -613 -612 613zm0 0l0 0 0 0z"/>
     <path id="1" class="fil0 str0" d="M1086 15167l612 -613m-612 613l0 0 0 0z"/>
    </g>
    <g>
     <path class="fil1" d="M1942 16023l613 -613 -613 613zm0 0l0 0 0 0z"/>
     <path id="1" class="fil0 str0" d="M1942 16023l613 -613m-613 613l0 0 0 0z"/>
    </g>
    <g>
     <path class="fil1" d="M2799 16879l612 -612 -612 612zm0 0l0 0 0 0z"/>
     <path id="1" class="fil0 str0" d="M2799 16879l612 -612m-612 612l0 0 0 0z"/>
    </g>
    <g>
     <path class="fil1" d="M3655 17736l613 -612 -613 612zm0 0l0 0 0 0z"/>
     <path id="1" class="fil0 str0" d="M3655 17736l613 -612m-613 612l0 0 0 0z"/>
    </g>
    <g>
     <path class="fil1" d="M4512 18593l612 -613 -612 613zm0 0l0 0 0 0z"/>
     <path id="1" class="fil0 str0" d="M4512 18593l612 -613m-612 613l0 0 0 0z"/>
    </g>
    <g>
     <path class="fil1" d="M5368 19449l613 -613 -613 613zm0 0l0 0 0 0z"/>
     <path id="1" class="fil0 str0" d="M5368 19449l613 -613m-613 613l0 0 0 0z"/>
    </g>
    <g>
     <path class="fil1" d="M6225 20306l612 -613 -612 613zm0 0l0 0 0 0z"/>
     <path id="1" class="fil0 str0" d="M6225 20306l612 -613m-612 613l0 0 0 0z"/>
    </g>
    <g>
     <path class="fil1" d="M7081 21162l613 -612 -613 612zm0 0l0 0 0 0z"/>
     <path id="1" class="fil0 str0" d="M7081 21162l613 -612m-613 612l0 0 0 0z"/>
    </g>
    <g>
     <path class="fil1" d="M7938 22019l613 -612 -613 612zm0 0l0 0 0 0z"/>
     <path id="1" class="fil0 str0" d="M7938 22019l613 -612m-613 612l0 0 0 0z"/>
    </g>
    <g>
     <path class="fil1" d="M8794 22876l613 -613 -613 613zm0 0l0 0 0 0z"/>
     <path id="1" class="fil0 str0" d="M8794 22876l613 -613m-613 613l0 0 0 0z"/>
    </g>
    <g>
     <path class="fil1" d="M9651 23732l612 -613 -612 613zm0 0l0 0 0 0z"/>
     <path id="1" class="fil0 str0" d="M9651 23732l612 -613m-612 613l0 0 0 0z"/>
    </g>
    <g>
     <path class="fil1" d="M1507 15593l308 -309 -308 309zm0 0l0 0 0 0z"/>
     <path id="1" class="fil0 str0" d="M1507 15593l308 -309m-308 309l0 0 0 0z"/>
    </g>
    <g>
     <path class="fil1" d="M2364 16450l309 -308 -309 308zm0 0l0 0 0 0z"/>
     <path id="1" class="fil0 str0" d="M2364 16450l309 -308m-309 308l0 0 0 0z"/>
    </g>
    <g>
     <path class="fil1" d="M3221 17308l309 -309 -309 309zm0 0l0 0 0 0z"/>
     <path id="1" class="fil0 str0" d="M3221 17308l309 -309m-309 309l0 0 0 0z"/>
    </g>
    <g>
     <path class="fil1" d="M4079 18166l308 -309 -308 309zm0 0l0 0 0 0z"/>
     <path id="1" class="fil0 str0" d="M4079 18166l308 -309m-308 309l0 0 0 0z"/>
    </g>
    <g>
     <path class="fil1" d="M4937 19023l308 -308 -308 308zm0 0l0 0 0 0z"/>
     <path id="1" class="fil0 str0" d="M4937 19023l308 -308m-308 308l0 0 0 0z"/>
    </g>
    <g>
     <path class="fil1" d="M5794 19881l309 -309 -309 309zm0 0l0 0 0 0z"/>
     <path id="1" class="fil0 str0" d="M5794 19881l309 -309m-309 309l0 0 0 0z"/>
    </g>
    <g>
     <path class="fil1" d="M6652 20738l308 -308 -308 308zm0 0l0 0 0 0z"/>
     <path id="1" class="fil0 str0" d="M6652 20738l308 -308m-308 308l0 0 0 0z"/>
    </g>
    <g>
     <path class="fil1" d="M7509 21596l309 -309 -309 309zm0 0l0 0 0 0z"/>
     <path id="1" class="fil0 str0" d="M7509 21596l309 -309m-309 309l0 0 0 0z"/>
    </g>
    <g>
     <path class="fil1" d="M8367 22453l308 -309 -308 309zm0 0l0 0 0 0z"/>
     <path id="1" class="fil0 str0" d="M8367 22453l308 -309m-308 309l0 0 0 0z"/>
    </g>
    <g>
     <path class="fil1" d="M9225 23311l308 -309 -308 309zm0 0l0 0 0 0z"/>
     <path id="1" class="fil0 str0" d="M9225 23311l308 -309m-308 309l0 0 0 0z"/>
    </g>
    <g>
     <path class="fil1" d="M10082 24168l309 -308 -309 308zm0 0l0 0 0 0z"/>
     <path id="1" class="fil0 str0" d="M10082 24168l309 -308m-309 308l0 0 0 0z"/>
    </g>
    <g>
     <path class="fil1" d="M649 14735l309 -308 -309 308zm0 0l0 0 0 0z"/>
     <path id="1" class="fil0 str0" d="M649 14735l309 -308m-309 308l0 0 0 0z"/>
    </g>
    <g>
     <path class="fil1" d="M19827 15190l-612 -613 612 613zm0 0l0 0 0 0z"/>
     <path id="1" class="fil0 str0" d="M19827 15190l-612 -613m612 613l0 0 0 0z"/>
    </g>
    <g>
     <path class="fil1" d="M18971 16046l-613 -612 613 612zm0 0l0 0 0 0z"/>
     <path id="1" class="fil0 str0" d="M18971 16046l-613 -612m613 612l0 0 0 0z"/>
    </g>
    <g>
     <path class="fil1" d="M18114 16903l-613 -612 613 612zm0 0l0 0 0 0z"/>
     <path id="1" class="fil0 str0" d="M18114 16903l-613 -612m613 612l0 0 0 0z"/>
    </g>
    <g>
     <path class="fil1" d="M17258 17760l-613 -613 613 613zm0 0l0 0 0 0z"/>
     <path id="1" class="fil0 str0" d="M17258 17760l-613 -613m613 613l0 0 0 0z"/>
    </g>
    <g>
     <path class="fil1" d="M16401 18617l-613 -613 613 613zm0 0l0 0 0 0z"/>
     <path id="1" class="fil0 str0" d="M16401 18617l-613 -613m613 613l0 0 0 0z"/>
    </g>
    <g>
     <path class="fil1" d="M15544 19473l-612 -613 612 613zm0 0l0 0 0 0z"/>
     <path id="1" class="fil0 str0" d="M15544 19473l-612 -613m612 613l0 0 0 0z"/>
    </g>
    <g>
     <path class="fil1" d="M14688 20329l-613 -612 613 612zm0 0l0 0 0 0z"/>
     <path id="1" class="fil0 str0" d="M14688 20329l-613 -612m613 612l0 0 0 0z"/>
    </g>
    <g>
     <path class="fil1" d="M13831 21186l-613 -612 613 612zm0 0l0 0 0 0z"/>
     <path id="1" class="fil0 str0" d="M13831 21186l-613 -612m613 612l0 0 0 0z"/>
    </g>
    <g>
     <path class="fil1" d="M12975 22042l-613 -612 613 612zm0 0l0 0 0 0z"/>
     <path id="1" class="fil0 str0" d="M12975 22042l-613 -612m613 612l0 0 0 0z"/>
    </g>
    <g>
     <path class="fil1" d="M12118 22899l-612 -613 612 613zm0 0l0 0 0 0z"/>
     <path id="1" class="fil0 str0" d="M12118 22899l-612 -613m612 613l0 0 0 0z"/>
    </g>
    <g>
     <path class="fil1" d="M11261 23756l-612 -613 612 613zm0 0l0 0 0 0z"/>
     <path id="1" class="fil0 str0" d="M11261 23756l-612 -613m612 613l0 0 0 0z"/>
    </g>
    <g>
     <path class="fil1" d="M19406 15617l-309 -309 309 309zm0 0l0 0 0 0z"/>
     <path id="1" class="fil0 str0" d="M19406 15617l-309 -309m309 309l0 0 0 0z"/>
    </g>
    <g>
     <path class="fil1" d="M18548 16474l-308 -309 308 309zm0 0l0 0 0 0z"/>
     <path id="1" class="fil0 str0" d="M18548 16474l-308 -309m308 309l0 0 0 0z"/>
    </g>
    <g>
     <path class="fil1" d="M17691 17331l-309 -308 309 308zm0 0l0 0 0 0z"/>
     <path id="1" class="fil0 str0" d="M17691 17331l-309 -308m309 308l0 0 0 0z"/>
    </g>
    <g>
     <path class="fil1" d="M16833 18189l-308 -309 308 309zm0 0l0 0 0 0z"/>
     <path id="1" class="fil0 str0" d="M16833 18189l-308 -309m308 309l0 0 0 0z"/>
    </g>
    <g>
     <path class="fil1" d="M15976 19047l-309 -309 309 309zm0 0l0 0 0 0z"/>
     <path id="1" class="fil0 str0" d="M15976 19047l-309 -309m309 309l0 0 0 0z"/>
    </g>
    <g>
     <path class="fil1" d="M15118 19904l-309 -308 309 308zm0 0l0 0 0 0z"/>
     <path id="1" class="fil0 str0" d="M15118 19904l-309 -308m309 308l0 0 0 0z"/>
    </g>
    <g>
     <path class="fil1" d="M14261 20762l-309 -309 309 309zm0 0l0 0 0 0z"/>
     <path id="1" class="fil0 str0" d="M14261 20762l-309 -309m309 309l0 0 0 0z"/>
    </g>
    <g>
     <path class="fil1" d="M13403 21619l-308 -308 308 308zm0 0l0 0 0 0z"/>
     <path id="1" class="fil0 str0" d="M13403 21619l-308 -308m308 308l0 0 0 0z"/>
    </g>
    <g>
     <path class="fil1" d="M12546 22477l-309 -309 309 309zm0 0l0 0 0 0z"/>
     <path id="1" class="fil0 str0" d="M12546 22477l-309 -309m309 309l0 0 0 0z"/>
    </g>
    <g>
     <path class="fil1" d="M11688 23335l-308 -309 308 309zm0 0l0 0 0 0z"/>
     <path id="1" class="fil0 str0" d="M11688 23335l-308 -309m308 309l0 0 0 0z"/>
    </g>
    <g>
     <path class="fil1" d="M10831 24192l-309 -308 309 308zm0 0l0 0 0 0z"/>
     <path id="1" class="fil0 str0" d="M10831 24192l-309 -308m309 308l0 0 0 0z"/>
    </g>
    <g>
     <path class="fil1" d="M20264 14759l-309 -308 309 308zm0 0l0 0 0 0z"/>
     <path id="1" class="fil0 str0" d="M20264 14759l-309 -308m309 308l0 0 0 0z"/>
    </g>
   </g>
   <g>
    <g>
     <path class="fil2 str1" d="M11111 5831l-1885 1088 2998 5193c2180,80 3526,4752 5289,7128 767,-529 980,692 2867,2645l-9269 -16054 0 0z"/>
     <path class="fil2 str1" d="M9804 5831l1885 1088 -2999 5193c-2179,80 -3525,4752 -5288,7128 -767,-529 -980,692 -2867,2645l9269 -16054 0 0z"/>
    </g>
    <path class="fil1 str1" d="M12146 6632c0,962 -779,1742 -1741,1742 -962,0 -1742,-780 -1742,-1742 0,-962 780,-1742 1742,-1742 962,0 1741,780 1741,1742z"/>
    <path class="fil2 str1" d="M11809 6632c0,776 -629,1405 -1404,1405 -776,0 -1405,-629 -1404,-1405 -1,-775 628,-1404 1404,-1404 775,0 1404,629 1404,1404z"/>
   </g>
  </g>
 </g>
</svg>
