<svg xmlns="http://www.w3.org/2000/svg" xml:space="preserve" width="50" height="50" version="1.1" viewBox="0 0 18200 14000" style="image-rendering:optimizeQuality;shape-rendering:geometricPrecision;text-rendering:geometricPrecision"><defs><style type="text/css"> .fil0 {fill:black} </style></defs><path class="fil0" d="M7000 0c-776 0-1053 706-1400 1400l-700 1400-2800 0c-1163 0-2100 937-2100 2100l0 7000c0 1163 937 2100 2100 2100l14000 0c1163 0 2100-937 2100-2100l0-7000c0-1163-937-2100-2100-2100l-2800 0-700-1400c-350-700-624-1400-1400-1400l-4200 0zm-4900 4200c387 0 700 313 700 700 0 387-313 700-700 700-387 0-700-313-700-700 0-387 313-700 700-700zm7000 0c2320 0 4200 1880 4200 4200 0 2320-1880 4200-4200 4200-2320 0-4200-1880-4200-4200 0-2320 1880-4200 4200-4200zm0 2100c-1160 0-2100 940-2100 2100 0 1160 940 2100 2100 2100 1160 0 2100-940 2100-2100 0-1160-940-2100-2100-2100z"/></svg>
