<svg xmlns="http://www.w3.org/2000/svg" xml:space="preserve" width="100" height="100" version="1" viewBox="0 0 20994 19937" style="image-rendering:optimizeQuality;shape-rendering:geometricPrecision;text-rendering:geometricPrecision"><defs><style type="text/css"> .str0 {stroke:black;stroke-width:199.197} .str1 {stroke:black;stroke-width:248.996} .fil0 {fill:none} .fil2 {fill:black} .fil1 {fill:white} </style></defs><polygon class="fil0 str0" points="252 9550 1856 7946 10502 16592 19145 7951 20743 9549 10497 19796 251 9549 "/><path class="fil1" d="M1163 10360l610-610-610 610zm0 0l0 0 0 0z"/><path class="fil0 str0" d="M1163 10360l610-610m-610 610l0 0 0 0z"/><path class="fil1" d="M2016 11213l610-611-610 611zm0 0l0 0 0 0z"/><path class="fil0 str0" d="M2016 11213l610-611m-610 611l0 0 0 0z"/><path class="fil1" d="M2869 12065l610-609-610 609zm0 0l0 0 0 0z"/><path class="fil0 str0" d="M2869 12065l610-609m-610 609l0 0 0 0z"/><path class="fil1" d="M3722 12919l610-610-610 610zm0 0l0 0 0 0z"/><path class="fil0 str0" d="M3722 12919l610-610m-610 610l0 0 0 0z"/><path class="fil1" d="M4575 13772l610-610-610 610zm0 0l0 0 0 0z"/><path class="fil0 str0" d="M4575 13772l610-610m-610 610l0 0 0 0z"/><path class="fil1" d="M5428 14625l610-611-610 611zm0 0l0 0 0 0z"/><path class="fil0 str0" d="M5428 14625l610-611m-610 611l0 0 0 0z"/><path class="fil1" d="M6281 15479l610-611-610 611zm0 0l0 0 0 0z"/><path class="fil0 str0" d="M6281 15479l610-611m-610 611l0 0 0 0z"/><path class="fil1" d="M7134 16331l610-609-610 609zm0 0l0 0 0 0z"/><path class="fil0 str0" d="M7134 16331l610-609m-610 609l0 0 0 0z"/><path class="fil1" d="M7988 17185l610-610-610 610zm0 0l0 0 0 0z"/><path class="fil0 str0" d="M7988 17185l610-610m-610 610l0 0 0 0z"/><path class="fil1" d="M8840 18038l611-610-611 610zm0 0l0 0 0 0z"/><path class="fil0 str0" d="M8840 18038l611-610m-611 610l0 0 0 0z"/><path class="fil1" d="M9694 18891l609-611-609 611zm0 0l0 0 0 0z"/><path class="fil0 str0" d="M9694 18891l609-611m-609 611l0 0 0 0z"/><path class="fil1" d="M1582 10785l307-308-307 308zm0 0l0 0 0 0z"/><path class="fil0 str0" d="M1582 10785l307-308m-307 308l0 0 0 0z"/><path class="fil1" d="M2436 11638l308-307-308 307zm0 0l0 0 0 0z"/><path class="fil0 str0" d="M2436 11638l308-307m-308 307l0 0 0 0z"/><path class="fil1" d="M3289 12493l308-308-308 308zm0 0l0 0 0 0z"/><path class="fil0 str0" d="M3289 12493l308-308m-308 308l0 0 0 0z"/><path class="fil1" d="M4144 13347l307-308-307 308zm0 0l0 0 0 0z"/><path class="fil0 str0" d="M4144 13347l307-308m-307 308l0 0 0 0z"/><path class="fil1" d="M4999 14201l306-307-306 307zm0 0l0 0 0 0z"/><path class="fil0 str0" d="M4999 14201l306-307m-306 307l0 0 0 0z"/><path class="fil1" d="M5852 15055l308-307-308 307zm0 0l0 0 0 0z"/><path class="fil0 str0" d="M5852 15055l308-307m-308 307l0 0 0 0z"/><path class="fil1" d="M6707 15909l306-307-306 307zm0 0l0 0 0 0z"/><path class="fil0 str0" d="M6707 15909l306-307m-306 307l0 0 0 0z"/><path class="fil1" d="M7560 16763l308-307-308 307zm0 0l0 0 0 0z"/><path class="fil0 str0" d="M7560 16763l308-307m-308 307l0 0 0 0z"/><path class="fil1" d="M8415 17617l307-308-307 308zm0 0l0 0 0 0z"/><path class="fil0 str0" d="M8415 17617l307-308m-307 308l0 0 0 0z"/><path class="fil1" d="M9269 18472l307-308-307 308zm0 0l0 0 0 0z"/><path class="fil0 str0" d="M9269 18472l307-308m-307 308l0 0 0 0z"/><path class="fil1" d="M10123 19325l308-307-308 307zm0 0l0 0 0 0z"/><path class="fil0 str0" d="M10123 19325l308-307m-308 307l0 0 0 0z"/><path class="fil1" d="M728 9930l308-307-308 307zm0 0l0 0 0 0z"/><path class="fil0 str0" d="M728 9930l308-307m-308 307l0 0 0 0z"/><path class="fil1" d="M19829 10383l-610-610 610 610zm0 0l0 0 0 0z"/><path class="fil0 str0" d="M19829 10383l-610-610m610 610l0 0 0 0z"/><path class="fil1" d="M18976 11236l-610-610 610 610zm0 0l0 0 0 0z"/><path class="fil0 str0" d="M18976 11236l-610-610m610 610l0 0 0 0z"/><path class="fil1" d="M18123 12089l-611-609 611 609zm0 0l0 0 0 0z"/><path class="fil0 str0" d="M18123 12089l-611-609m611 609l0 0 0 0z"/><path class="fil1" d="M17270 12943l-610-611 610 611zm0 0l0 0 0 0z"/><path class="fil0 str0" d="M17270 12943l-610-611m610 611l0 0 0 0z"/><path class="fil1" d="M16417 13796l-611-610 611 610zm0 0l0 0 0 0z"/><path class="fil0 str0" d="M16417 13796l-611-610m611 610l0 0 0 0z"/><path class="fil1" d="M15563 14649l-610-611 610 611zm0 0l0 0 0 0z"/><path class="fil0 str0" d="M15563 14649l-610-611m610 611l0 0 0 0z"/><path class="fil1" d="M14710 15501l-610-609 610 609zm0 0l0 0 0 0z"/><path class="fil0 str0" d="M14710 15501l-610-609m610 609l0 0 0 0z"/><path class="fil1" d="M13857 16355l-611-609 611 609zm0 0l0 0 0 0z"/><path class="fil0 str0" d="M13857 16355l-611-609m611 609l0 0 0 0z"/><path class="fil1" d="M13004 17208l-610-610 610 610zm0 0l0 0 0 0z"/><path class="fil0 str0" d="M13004 17208l-610-610m610 610l0 0 0 0z"/><path class="fil1" d="M12151 18061l-610-610 610 610zm0 0l0 0 0 0z"/><path class="fil0 str0" d="M12151 18061l-610-610m610 610l0 0 0 0z"/><path class="fil1" d="M11297 18915l-609-611 609 611zm0 0l0 0 0 0z"/><path class="fil0 str0" d="M11297 18915l-609-611m609 611l0 0 0 0z"/><path class="fil1" d="M19409 10808l-307-307 307 307zm0 0l0 0 0 0z"/><path class="fil0 str0" d="M19409 10808l-307-307m307 307l0 0 0 0z"/><path class="fil1" d="M18555 11662l-307-308 307 308zm0 0l0 0 0 0z"/><path class="fil0 str0" d="M18555 11662l-307-308m307 308l0 0 0 0z"/><path class="fil1" d="M17701 12516l-307-307 307 307zm0 0l0 0 0 0z"/><path class="fil0 str0" d="M17701 12516l-307-307m307 307l0 0 0 0z"/><path class="fil1" d="M16847 13370l-307-308 307 308zm0 0l0 0 0 0z"/><path class="fil0 str0" d="M16847 13370l-307-308m307 308l0 0 0 0z"/><path class="fil1" d="M15993 14225l-308-308 308 308zm0 0l0 0 0 0z"/><path class="fil0 str0" d="M15993 14225l-308-308m308 308l0 0 0 0z"/><path class="fil1" d="M15139 15078l-308-307 308 307zm0 0l0 0 0 0z"/><path class="fil0 str0" d="M15139 15078l-308-307m308 307l0 0 0 0z"/><path class="fil1" d="M14285 15933l-308-308 308 308zm0 0l0 0 0 0z"/><path class="fil0 str0" d="M14285 15933l-308-308m308 308l0 0 0 0z"/><path class="fil1" d="M13431 16786l-307-306 307 306zm0 0l0 0 0 0z"/><path class="fil0 str0" d="M13431 16786l-307-306m307 306l0 0 0 0z"/><path class="fil1" d="M12577 17641l-308-308 308 308zm0 0l0 0 0 0z"/><path class="fil0 str0" d="M12577 17641l-308-308m308 308l0 0 0 0z"/><path class="fil1" d="M11722 18495l-306-307 306 307zm0 0l0 0 0 0z"/><path class="fil0 str0" d="M11722 18495l-306-307m306 307l0 0 0 0z"/><path class="fil1" d="M10869 19349l-308-307 308 307zm0 0l0 0 0 0z"/><path class="fil0 str0" d="M10869 19349l-308-307m308 307l0 0 0 0z"/><path class="fil1" d="M20264 9954l-308-307 308 307zm0 0l0 0 0 0z"/><path class="fil0 str0" d="M20264 9954l-308-307m308 307l0 0 0 0z"/><path class="fil2 str1" d="M11148 1062l-1878 1083 2986 5172c2172 80 3512 4733 5268 7100 764-527 976 689 2856 2634l-9232-15989 0 0z"/><path class="fil2 str1" d="M9846 1062l1877 1083-2987 5172c-2170 80-3510 4733-5266 7100-764-527-976 689-2856 2634l9232-15989 0 0z"/><path class="fil1 str1" d="M12179 1860c0 958-776 1735-1734 1735-959 0-1735-777-1735-1735 0-959 776-1736 1735-1736 958 0 1734 777 1734 1736z"/><path class="fil2 str1" d="M11843 1860c0 772-627 1399-1398 1399-773 0-1400-627-1399-1399-1-772 626-1399 1399-1399 771 0 1398 627 1398 1399z"/></svg>
