<svg xmlns="http://www.w3.org/2000/svg" xml:space="preserve" width="100" height="100" version="1.1" viewBox="0 0 1251 1409" style="clip-rule:evenodd;fill-rule:evenodd;image-rendering:optimizeQuality;shape-rendering:geometricPrecision;text-rendering:geometricPrecision"><defs><style type="text/css"> .fil0 {fill:black} </style></defs><path class="fil0" d="M786 554c-3 5-6 8-9 13l-21 25c-3 3-9 10-11 12-10-6-53-47-59-49 0-1 37-46 42-50 0 24-8 50 5 58 12 7 40-6 53-9zm66-554l8 0c36 1 72 14 102 41 33 29 38 52 45 63 2 2 17 17 18 17 8 0 19-3 25-4-9-18-7-36 4-53l16-19c60-61 124 9 124 44l0 7c0 27-36 72-62 72l-22-1-2 41c32 0 77 22 100 45l17 20c6 7 9 14 13 22 22 45 14 107-6 150-7 16-73 100-87 114l-23 26c-10 10-28 30-40 36-22 9-59 17-84 14-9-1-14 0-23-2-51-9-91-40-117-83-5-9-9-22-13-32l-1 8c-8 0-20 3-27 3 4 6 7 9 5 18-6 19-33 46-47 63-5 7-22 28-27 31-5-3-9-7-14-10-11-9-78-65-84-74l40-50c17-18 28-39 52-39 0-12-2-19-2-31 6 0 3 0 5-1-19 0-50-14-62-21-58-33-87-90-88-158l-14 13 29-72c15-25 60-78 83-103l25-26c11-12 21-23 35-33 30-23 65-35 99-36zm-84 462c12 0 28-4 45-4l3 44c-16 0-31 4-45 5 0-7-1-41-3-45zm71-25c0-5-1-4-1-10l4 0-3 10zm179-218c2-5-3-2 4-3l-1 1c-1 1-3 1-3 2zm-28 7c0 8-1 24 15 24 18 0 18-11 75-15 59-4 119 26 138 83 12 37 5 77-8 110-12 29-95 125-115 146-5 5-9 9-14 14-18 18-56 21-82 21-58 0-114-45-129-102-1-6-3-14-4-20-2-21-2-16 0-31 1-16 0-10 4-31 3-13 5-27 8-39-20 0-91 49-169 12-47-23-86-71-86-125 0-24-1-43 11-63 13-19 35-47 50-65l41-45c3-3 5-4 7-7 3-4 4-5 7-8 31-31 68-58 115-58 26 0 50 8 67 18 56 33 83 98 72 162-2 6-3 11-3 19zm91-40c-6 0-5 2-13 2l-28 0c0-15-4-27-4-40 4-2 41-9 48-9-3 7 0 36-3 47zm37-139c23 0 49 27 49 45 0 13-8 23-14 31-6 8-15 19-27 19-8 0-35-7-38-11-1-2-3-6-4-8-4-8-9-13-12-25-4-18 29-51 46-51z"/><path class="fil0" d="M428 1170l0 0zm0 0c-13-9-33-30-55-29-48 3-54 39-25 69 3 3 5 7 9 11 6 4 7 5 12 10 10 10 26 20 32 34 4 9-6 24-18 21-4-1-10-5-14-8-17-9-34-24-51-35-42-28-75 4-60 40 8 22 33 36 40 47-10 0-18 0-23 6-5 6-4 18-2 26-7-4-26-22-33-28l-44-39c-7-8-14-15-25-16-9-2-9 1-13 6-22 26-46 52-66 79-12 14-20 25-40 16-9-4-16-12-20-22-8-19 1-22 16-38 2-3 2-3 4-6l24-28c15-19 33-36 48-56l124-145c4-4 5-6 9-11 17-17 32-37 48-56l28-33c4-5 6-7 10-11l264-316c5-7 32-42 38-44 16-7 43 20 49 32 8 15 3 16-5 26-7 8-13 15-19 23l-209 246c-4 3-7 7-10 11l-85 101c10 15 82 66 93 83-14 0-20-2-27 7-8 10-4 15-4 27zm-428 167c0 19 8 37 17 48 15 21 31 24 55 24 21 0 33-19 48-38 9-10 50-55 51-62 4 2 4 3 7 6 4 3 5 3 8 6 9 9 17 18 27 26 4 3 4 3 8 6l29 25c13 10 24 30 43 30 23 0 13-38 7-50 11 1 24 6 34-2 17-14-6-36-16-46l-20-17c-6-5-13-14-16-21-2-7 0-8 3-13 14 1 41 22 51 29 22 17 55 42 79 12 8-9 13-19 13-34 0-28-47-56-65-80-3-4-5-7-5-14 24-6 27-3 50 17 8 7 26 21 38 21 24 0 15-35 9-47 13 3 41 12 47-9 2-8-4-16-7-20-13-17-29-29-44-43-4-3-4-3-8-6l-31-27c-5-4-3-3-9-6 12-17 27-32 40-49 18-22 38-44 56-65 15-18 32-36 46-55 3-4 7-7 10-12l10-12c8-8 14-15 21-23l122-144c3-5 6-9 10-13 6-6 7-11 7-20 0-38-55-88-95-69-9 5-24 27-31 35l-20 24c-25 32-53 63-79 95l-139 166c-4 5-7 8-10 12l-40 48c-3 2-2 3-5 5l-66 78c-6 8-12 15-19 23l-40 47c-4 4-7 8-11 12-2 3-2 3-4 6l-26 29c-13 17-35 42-50 59l-61 71c-6 7-29 30-29 37z"/><path class="fil0" d="M1012 490c0-20 17-48 4-83-3-7-7-14-8-20 19 5 10 6 37 6 11 0 27-5 36-8 11-5 19-10 31-13-25 49-51 36-63 46-12 8-10 26-13 42-3 17-6 21-24 30zm-65-130c0 9 7 15 12 18 7 5 11 6 17 12 8 9 18 30 18 46 0 20-9 27-9 59 0 13 10 23 23 24 0 7-2 2 3 4l9-6c33-17 45-36 45-77 20-4 32-7 49-24 38-37 31-72 4-72-12 0-29 8-38 12-72 31-71-16-109-16-14 0-24 13-24 20z"/><path class="fil0" d="M852 256l0 0zm0 0c-8-1-28-14-67 0-4 1-8 3-12 4-7 3-16 7-25 7 8-37 51-27 64-44 10-14-2-22 9-43 5-8 17-27 27-29 0 20-16 50-6 82 4 11 9 18 10 23zm-63-49c-31 2-73 30-68 68 6 44 72 1 99 1 35 0 40 31 66 31 11 0 18-10 18-22 0-26-38-37-38-75 0-24 15-55 8-76-8-20-35-15-49-1-13 12-24 25-31 42-4 11-5 17-5 32z"/><path class="fil0" d="M1018 304c0-30 56-40 56 2 0 14 1 13-9 20-3 2-11 8-15 8-16 0-32-13-32-30zm-27-1c0 16 6 31 17 41 15 13 28 16 47 16 9 0 38-16 44-34 2-6 4-14 2-22-2-17-3-24-14-37-24-30-96-16-96 36z"/><path class="fil0" d="M818 360c-9 0-20 2-24-7-9-18-4-44 27-44 8 0 13 2 17 7 14 15 7 44-20 44zm-54-28c0 76 74 58 90 43 39-37 8-93-27-93-18 0-33 1-47 15-9 7-16 21-16 35z"/><path class="fil0" d="M907 437c0-35 53-39 53-1 0 35-53 39-53 1zm-26-3c0 34 21 58 51 57 32 0 55-25 55-60 0-25-22-48-47-48l-8 0c-28 0-51 24-51 51z"/><path class="fil0" d="M951 198c0 21-2 31-28 31-32 0-32-58 11-51 6 2 9 2 13 5 2 4 4 9 4 15zm-78 4c0 24 11 43 32 50 28 11 58 0 69-25 12-27 6-76-48-76-29 0-53 23-53 51z"/></svg>
